<svg width="274" height="202" viewBox="0 0 274 202" fill="none" xmlns="http://www.w3.org/2000/svg">
<g clip-path="url(#clip0_24_131)">
<path d="M263.638 182.014C262.819 175.421 258.733 168.926 252.445 166.78C254.925 173.566 254.924 181.01 252.444 187.795C251.478 190.408 250.131 193.214 251.04 195.848C251.605 197.487 252.989 198.741 254.535 199.525C256.081 200.309 257.797 200.683 259.492 201.049L259.825 201.325C262.515 195.25 264.458 188.606 263.638 182.014Z" fill="#F0F0F0"/>
<path d="M252.383 166.905C256.044 171.007 258.32 176.159 258.887 181.629C259.03 182.804 258.987 183.995 258.759 185.156C258.5 186.281 257.945 187.316 257.152 188.154C256.427 188.949 255.594 189.68 255.076 190.638C254.818 191.132 254.667 191.675 254.634 192.232C254.601 192.789 254.685 193.346 254.883 193.868C255.34 195.18 256.242 196.25 257.16 197.265C258.18 198.393 259.257 199.548 259.69 201.043C259.743 201.224 260.021 201.132 259.968 200.951C259.214 198.35 256.69 196.873 255.486 194.531C254.924 193.438 254.688 192.169 255.215 191.015C255.675 190.006 256.534 189.252 257.274 188.453C258.061 187.647 258.638 186.661 258.955 185.581C259.241 184.434 259.33 183.247 259.218 182.071C259.008 179.419 258.383 176.816 257.364 174.358C256.218 171.546 254.599 168.951 252.577 166.685C252.452 166.545 252.259 166.766 252.383 166.905H252.383Z" fill="white"/>
<path d="M258.808 179.857C259.713 179.637 260.51 179.103 261.057 178.35C261.605 177.597 261.866 176.674 261.796 175.745C261.781 175.557 261.488 175.572 261.503 175.76C261.571 176.624 261.327 177.484 260.816 178.184C260.305 178.885 259.56 179.379 258.716 179.579C258.533 179.622 258.626 179.9 258.808 179.857V179.857Z" fill="white"/>
<path d="M257.572 187.798C255.938 186.823 254.732 185.267 254.194 183.441C254.14 183.26 253.863 183.352 253.916 183.533C254.479 185.432 255.738 187.048 257.44 188.06C257.603 188.156 257.734 187.894 257.572 187.798Z" fill="white"/>
<path d="M255.946 171.823C255.614 171.981 255.247 172.054 254.88 172.036C254.512 172.017 254.155 171.907 253.841 171.716C253.68 171.618 253.549 171.88 253.709 171.978C254.058 172.187 254.452 172.308 254.858 172.329C255.264 172.351 255.669 172.273 256.038 172.101C256.074 172.088 256.104 172.062 256.121 172.027C256.138 171.993 256.142 171.953 256.131 171.916C256.119 171.88 256.092 171.849 256.058 171.832C256.023 171.814 255.983 171.811 255.946 171.823L255.946 171.823Z" fill="white"/>
<path d="M233.281 178.555C233.38 178.62 233.478 178.684 233.577 178.751C234.901 179.621 236.153 180.598 237.319 181.671C237.41 181.753 237.501 181.837 237.59 181.921C240.372 184.537 242.643 187.646 244.29 191.092C244.944 192.463 245.492 193.882 245.931 195.337C246.536 197.346 247.033 199.573 248.231 201.216C248.354 201.389 248.488 201.554 248.632 201.71H259.463C259.487 201.698 259.512 201.688 259.537 201.676L259.969 201.695C259.952 201.619 259.932 201.54 259.915 201.463C259.905 201.419 259.893 201.374 259.883 201.33C259.875 201.3 259.868 201.27 259.863 201.243C259.861 201.233 259.858 201.223 259.856 201.216C259.851 201.189 259.843 201.164 259.838 201.139C259.73 200.697 259.618 200.255 259.502 199.812C259.502 199.81 259.502 199.81 259.5 199.807C258.653 196.428 257.409 193.162 255.793 190.076C255.744 189.984 255.694 189.891 255.64 189.799C254.891 188.433 254.033 187.131 253.072 185.905C252.544 185.235 251.982 184.592 251.389 183.98C249.854 182.399 248.079 181.07 246.131 180.041C242.246 177.989 237.749 177.204 233.597 178.456C233.491 178.489 233.387 178.521 233.281 178.555Z" fill="#F0F0F0"/>
<path d="M233.305 178.693C238.699 179.764 243.617 182.507 247.363 186.533C248.185 187.386 248.867 188.362 249.384 189.427C249.855 190.481 250.035 191.641 249.906 192.788C249.807 193.859 249.581 194.944 249.744 196.021C249.836 196.571 250.042 197.095 250.351 197.56C250.66 198.025 251.063 198.419 251.534 198.716C252.69 199.489 254.054 199.8 255.399 200.058C256.892 200.344 258.447 200.618 259.693 201.55C259.844 201.663 260.01 201.423 259.86 201.31C257.692 199.687 254.787 200.028 252.415 198.882C251.308 198.348 250.356 197.477 250.082 196.238C249.842 195.156 250.074 194.037 250.184 192.953C250.326 191.836 250.194 190.701 249.797 189.648C249.335 188.56 248.691 187.559 247.894 186.687C246.129 184.696 244.063 182.994 241.77 181.644C239.161 180.09 236.306 178.993 233.328 178.401C233.143 178.364 233.122 178.657 233.305 178.693V178.693Z" fill="white"/>
<path d="M246.233 185.166C246.823 184.446 247.138 183.539 247.122 182.609C247.105 181.678 246.758 180.783 246.143 180.084C246.018 179.943 245.793 180.131 245.918 180.272C246.493 180.922 246.816 181.755 246.829 182.622C246.843 183.489 246.546 184.332 245.992 184.999C245.872 185.145 246.114 185.31 246.233 185.166V185.166Z" fill="white"/>
<path d="M250.028 192.251C248.135 192.456 246.236 191.94 244.707 190.806C244.555 190.694 244.389 190.935 244.54 191.047C246.133 192.224 248.111 192.757 250.08 192.539C250.268 192.518 250.214 192.23 250.028 192.251V192.251Z" fill="white"/>
<path d="M239.111 180.475C238.941 180.801 238.692 181.08 238.388 181.286C238.083 181.493 237.732 181.62 237.366 181.657C237.178 181.676 237.232 181.964 237.418 181.945C237.822 181.902 238.21 181.761 238.547 181.534C238.884 181.307 239.161 181 239.352 180.641C239.373 180.609 239.381 180.57 239.374 180.532C239.367 180.494 239.346 180.461 239.315 180.438C239.283 180.416 239.244 180.407 239.206 180.414C239.167 180.421 239.133 180.443 239.111 180.475V180.475Z" fill="white"/>
<path d="M40.5737 57.9523C30.8449 63.0837 23.1794 73.2156 23.5401 84.2086C32.5955 76.394 44.1232 72.0344 56.0836 71.9011C60.6964 71.8664 65.8306 72.3081 69.3769 69.358C71.5835 67.5224 72.7149 64.6459 73.0233 61.7923C73.3316 58.9386 72.9051 56.0623 72.4795 53.2237L72.7113 52.5457C61.7291 51.9381 50.3024 52.821 40.5737 57.9523Z" fill="#F0F0F0"/>
<path d="M23.7696 84.2322C27.9779 76.1591 34.6229 69.6172 42.7608 65.5357C44.4971 64.626 46.366 63.9956 48.2986 63.6678C50.1915 63.4093 52.1191 63.6625 53.8812 64.4009C55.5379 65.0564 57.1566 65.9188 58.9439 66.1602C59.8605 66.2702 60.7901 66.1851 61.6716 65.9107C62.5531 65.6362 63.3667 65.1785 64.0589 64.5675C65.8232 63.0901 66.9515 61.0669 67.9861 59.0499C69.1349 56.8105 70.2926 54.4663 72.3534 52.9195C72.6031 52.7321 72.2977 52.3556 72.0484 52.5427C68.4629 55.2338 67.6541 60.0085 64.732 63.245C63.3686 64.7552 61.5417 65.8637 59.4465 65.7239C57.6144 65.6017 55.9443 64.7139 54.2726 64.0357C52.5643 63.2901 50.6994 62.9741 48.8408 63.1155C46.8977 63.3438 45.0077 63.9011 43.2516 64.7636C39.2672 66.6422 35.6029 69.1356 32.3929 72.1524C28.7104 75.5752 25.6405 79.6028 23.3161 84.0608C23.1723 84.3368 23.6268 84.5063 23.7696 84.2322H23.7696Z" fill="white"/>
<path d="M40.0631 66.6957C39.193 65.4233 37.8989 64.5016 36.412 64.0953C34.925 63.6889 33.342 63.8244 31.9457 64.4774C31.6636 64.6105 31.8572 65.0551 32.1397 64.9218C33.4388 64.3113 34.9134 64.1853 36.2973 64.5665C37.6811 64.9477 38.8832 65.8111 39.6864 67.0007C39.8612 67.259 40.237 66.9525 40.0632 66.6957H40.0631Z" fill="white"/>
<path d="M53.0849 63.9579C52.5312 67.0599 50.8286 69.8393 48.3166 71.7418C48.0676 71.9301 48.3729 72.3066 48.6216 72.1186C51.2319 70.1339 52.9979 67.238 53.567 64.0086C53.621 63.7008 53.1386 63.6517 53.0849 63.9579V63.9579Z" fill="white"/>
<path d="M29.299 75.8334C29.7383 76.2556 30.0658 76.7802 30.2522 77.3603C30.4386 77.9403 30.478 78.5575 30.3669 79.1566C30.309 79.4636 30.7915 79.5123 30.849 79.2073C30.9687 78.5449 30.9243 77.8633 30.7198 77.222C30.5153 76.5807 30.1569 75.9992 29.6758 75.5284C29.6342 75.4802 29.5758 75.4497 29.5125 75.443C29.4492 75.4364 29.3857 75.4541 29.3349 75.4925C29.2852 75.5332 29.2536 75.5917 29.2469 75.6556C29.2402 75.7194 29.2589 75.7833 29.299 75.8334Z" fill="white"/>
<path d="M53.0006 106.989C53.0422 106.798 53.0839 106.607 53.1292 106.415C53.7019 103.854 54.4817 101.345 55.4609 98.9105C55.5336 98.7211 55.6102 98.5302 55.6881 98.3433C58.1097 92.5038 61.5943 87.1647 65.9649 82.5973C67.7057 80.7814 69.5822 79.1006 71.578 77.5695C74.3345 75.455 77.4914 73.3817 79.3342 70.5631C79.5297 70.2712 79.707 69.9674 79.865 69.6536L73.5205 52.881C73.4869 52.8502 73.4571 52.8176 73.4235 52.7866L73.2008 52.1053C73.0923 52.1771 72.9814 52.2539 72.8729 52.3257C72.8099 52.367 72.7482 52.4121 72.6851 52.4535C72.6435 52.4823 72.6019 52.5113 72.5628 52.5348C72.5489 52.5444 72.5351 52.5541 72.525 52.5622C72.4858 52.5857 72.4519 52.6118 72.4165 52.6339C71.7952 53.0614 71.1759 53.494 70.5584 53.9316C70.5546 53.9331 70.5546 53.9331 70.5522 53.9383C65.8561 57.2852 61.3981 61.0535 57.6538 65.3787C57.5412 65.5089 57.4247 65.6403 57.315 65.7782C55.6381 67.7371 54.1241 69.8299 52.7881 72.0355C52.0604 73.2456 51.3945 74.4917 50.7929 75.7691C49.2446 79.0728 48.2257 82.5994 47.7734 86.2197C46.8727 93.4368 48.2903 100.862 52.6623 106.557C52.7743 106.702 52.8849 106.844 53.0006 106.989Z" fill="#F0F0F0"/>
<path d="M53.1992 106.87C51.6987 97.8908 53.0657 88.6667 57.1061 80.5083C57.9447 78.7365 59.0574 77.108 60.4031 75.6827C61.7589 74.3367 63.4504 73.3783 65.3018 72.907C67.0193 72.4329 68.831 72.1469 70.4033 71.2636C71.2015 70.7995 71.8925 70.1719 72.431 69.4221C72.9696 68.6722 73.3436 67.8169 73.5285 66.9124C74.0477 64.6705 73.7304 62.3757 73.3422 60.1424C72.9111 57.6627 72.4241 55.094 73.1383 52.6182C73.2248 52.3182 72.7543 52.2015 72.6679 52.501C71.4253 56.8084 73.6542 61.1077 73.2697 65.4511C73.0903 67.4778 72.299 69.4628 70.542 70.6126C69.0056 71.6182 67.1376 71.9147 65.3945 72.3797C63.5816 72.8129 61.9023 73.6835 60.5034 74.9153C59.0895 76.2675 57.916 77.8504 57.0331 79.5963C54.9828 83.4952 53.5582 87.6922 52.8117 92.0335C51.9321 96.9836 51.9058 102.048 52.7339 107.007C52.7853 107.313 53.2503 107.175 53.1993 106.87H53.1992Z" fill="white"/>
<path d="M55.6505 83.0587C54.1897 82.5666 52.6015 82.6099 51.1696 83.1807C49.7377 83.7515 48.5554 84.8127 47.8337 86.1748C47.6886 86.4509 48.1108 86.6893 48.2561 86.4128C48.9258 85.1432 50.0273 84.1548 51.3618 83.626C52.6962 83.0972 54.1758 83.0628 55.5333 83.5291C55.8285 83.6301 55.944 83.1591 55.6505 83.0587V83.0587Z" fill="white"/>
<path d="M64.3993 73.0327C65.8249 75.8429 66.1388 79.0871 65.2786 82.1185C65.1931 82.4188 65.6636 82.5356 65.749 82.2357C66.6383 79.0795 66.3047 75.704 64.8148 72.7829C64.6726 72.5046 64.2579 72.7559 64.3993 73.0327H64.3993Z" fill="white"/>
<path d="M52.5576 96.8354C53.1625 96.908 53.7399 97.1297 54.2379 97.4806C54.7359 97.8315 55.139 98.3006 55.4109 98.8458C55.5495 99.1258 55.9641 98.8742 55.8264 98.596C55.5232 97.9951 55.0774 97.4776 54.528 97.0886C53.9786 96.6997 53.3423 96.4513 52.6748 96.365C52.6125 96.3516 52.5475 96.3624 52.4929 96.3952C52.4384 96.428 52.3983 96.4803 52.381 96.5416C52.3658 96.6039 52.3758 96.6698 52.4088 96.7248C52.4419 96.7798 52.4954 96.8195 52.5576 96.8354V96.8354Z" fill="white"/>
<path d="M148.476 40.6866H147.536V14.9156C147.536 12.9568 147.15 11.0173 146.4 9.20763C145.651 7.39799 144.552 5.75371 143.167 4.36868C141.782 2.98364 140.138 1.88496 138.328 1.13538C136.518 0.385805 134.579 1.9031e-06 132.62 0H78.0206C74.0648 -7.68684e-06 70.2709 1.57144 67.4737 4.36864C64.6765 7.16585 63.105 10.9597 63.105 14.9155V156.297C63.105 160.253 64.6765 164.047 67.4737 166.844C70.2709 169.641 74.0647 171.213 78.0206 171.213H132.62C136.576 171.213 140.37 169.641 143.167 166.844C145.964 164.047 147.536 160.253 147.536 156.297V59.0308H148.476V40.6866Z" fill="#3F3D56"/>
<path d="M133.222 3.88052H126.095C126.423 4.68406 126.548 5.55588 126.459 6.41916C126.371 7.28245 126.071 8.11071 125.587 8.83098C125.103 9.55125 124.449 10.1414 123.683 10.5495C122.917 10.9576 122.063 11.1711 121.195 11.1712H89.9158C89.048 11.1711 88.1935 10.9576 87.4276 10.5495C86.6618 10.1414 86.008 9.55126 85.5239 8.83099C85.0399 8.11072 84.7404 7.28245 84.6518 6.41916C84.5633 5.55587 84.6884 4.68405 85.0162 3.88051H78.3595C75.4053 3.88051 72.5721 5.05405 70.4832 7.14297C68.3943 9.23189 67.2207 12.0651 67.2207 15.0193V156.194C67.2207 159.148 68.3942 161.981 70.4832 164.07C72.5721 166.159 75.4053 167.332 78.3595 167.332H133.222C136.176 167.332 139.009 166.159 141.098 164.07C143.187 161.981 144.361 159.148 144.361 156.194V156.194V15.0193C144.361 13.5565 144.073 12.1081 143.513 10.7567C142.953 9.40523 142.132 8.17731 141.098 7.14298C140.064 6.10865 138.836 5.28817 137.484 4.7284C136.133 4.16862 134.685 3.88051 133.222 3.88052V3.88052Z" fill="white"/>
<path d="M105.807 86.7088C99.3059 86.7088 92.9511 84.7811 87.546 81.1695C82.1408 77.5578 77.9279 72.4245 75.4402 66.4186C72.9525 60.4126 72.3016 53.8039 73.5698 47.428C74.8381 41.0522 77.9685 35.1956 82.5652 30.5988C87.162 26.0021 93.0186 22.8717 99.3944 21.6035C105.77 20.3352 112.379 20.9862 118.385 23.4739C124.391 25.9616 129.524 30.1745 133.136 35.5797C136.747 40.9849 138.675 47.3397 138.675 53.8404C138.665 62.5547 135.199 70.9092 129.037 77.071C122.875 83.2329 114.521 86.699 105.807 86.7088V86.7088ZM105.807 21.5516C99.4206 21.5516 93.1779 23.4453 87.868 26.9932C82.5582 30.5412 78.4196 35.584 75.9758 41.484C73.5319 47.384 72.8925 53.8762 74.1383 60.1396C75.3842 66.403 78.4594 72.1563 82.975 76.672C87.4907 81.1876 93.244 84.2628 99.5074 85.5087C105.771 86.7546 112.263 86.1152 118.163 83.6713C124.063 81.2275 129.106 77.089 132.654 71.7791C136.202 66.4693 138.095 60.2266 138.095 53.8404C138.086 45.2799 134.681 37.0727 128.628 31.0195C122.574 24.9662 114.367 21.5613 105.807 21.5516V21.5516Z" fill="#3F3D56"/>
<path d="M102.018 56.68C100.884 53.3178 96.8353 51.2605 93.451 52.3266C90.5243 53.2485 88.5337 56.369 88.6926 59.3983C87.7139 55.6984 83.9483 52.8048 80.0863 53.076C75.7461 53.3807 72.0817 57.6255 72.4137 61.9636C72.2608 60.8256 71.7243 59.7737 70.8928 58.9817C70.0614 58.1898 68.9846 57.7051 67.8404 57.6078C66.6963 57.5105 65.5532 57.8064 64.5999 58.4466C63.6466 59.0867 62.9402 60.0329 62.5973 61.1288L62.5986 61.0484C61.9081 60.6604 60.9729 61.3404 60.9315 62.1315C60.8902 62.9226 61.5112 63.6274 62.2394 63.9394C62.9675 64.2514 63.7853 64.2553 64.5775 64.2543C74.4633 64.2416 84.3491 64.2288 94.2351 64.2161C96.5315 64.2132 99.0628 64.123 100.751 62.5661C102.311 61.127 102.697 58.6911 102.018 56.68Z" fill="#E4E4E4"/>
<path d="M125.652 72.0298C125.325 71.1635 124.686 70.4507 123.86 70.0313C123.035 69.6118 122.082 69.516 121.19 69.7625C119.666 70.2426 118.629 71.8678 118.712 73.4455C118.202 71.5186 116.241 70.0115 114.229 70.1528C111.969 70.3115 110.06 72.5222 110.233 74.7816C110.154 74.1889 109.874 73.641 109.441 73.2286C109.008 72.8161 108.447 72.5637 107.852 72.513C107.256 72.4624 106.66 72.6164 106.164 72.9498C105.667 73.2833 105.299 73.776 105.121 74.3468L105.122 74.3049C104.762 74.1028 104.275 74.457 104.253 74.869C104.261 75.0758 104.329 75.2757 104.451 75.4434C104.572 75.611 104.74 75.7388 104.934 75.8106C105.325 75.9469 105.739 76.0027 106.152 75.9746C111.301 75.968 116.449 75.9613 121.598 75.9547C122.794 75.9532 124.113 75.9062 124.992 75.0953C125.804 74.3459 126.005 73.0772 125.652 72.0298Z" fill="#E4E4E4"/>
<path d="M112.322 46.2959C118.573 46.2959 123.639 41.2292 123.639 34.9791C123.639 28.729 118.573 23.6623 112.322 23.6623C106.072 23.6623 101.006 28.729 101.006 34.9791C101.006 41.2292 106.072 46.2959 112.322 46.2959Z" fill="#FF6582"/>
<path d="M143.513 38.8475C142.379 35.4853 138.33 33.428 134.946 34.4941C132.019 35.416 130.028 38.5365 130.187 41.5658C129.209 37.8659 125.443 34.9723 121.581 35.2435C117.241 35.5482 113.576 39.793 113.908 44.1311C113.756 42.9931 113.219 41.9412 112.388 41.1492C111.556 40.3573 110.479 39.8726 109.335 39.7753C108.191 39.678 107.048 39.9739 106.095 40.6141C105.141 41.2542 104.435 42.2004 104.092 43.2963L104.093 43.2159C103.403 42.8279 102.468 43.5079 102.426 44.299C102.385 45.0902 103.006 45.7949 103.734 46.1069C104.462 46.4189 105.28 46.4228 106.072 46.4218C115.958 46.4091 125.844 46.3964 135.73 46.3836C138.026 46.3807 140.558 46.2906 142.246 44.7336C143.806 43.2946 144.192 40.8587 143.513 38.8475Z" fill="#E4E4E4"/>
<path d="M121.41 56.6108L123.589 54.8674C121.896 54.6806 121.2 55.6041 120.915 56.3351C119.593 55.7858 118.152 56.5057 118.152 56.5057L122.514 58.089C122.294 57.5014 121.911 56.9886 121.41 56.6108V56.6108Z" fill="#3F3D56"/>
<path d="M93.2891 73.7574L95.4689 72.014C93.7755 71.8272 93.0798 72.7507 92.795 73.4817C91.472 72.9324 90.0319 73.6523 90.0319 73.6523L94.3933 75.2357C94.1732 74.648 93.7902 74.1352 93.2891 73.7574V73.7574Z" fill="#3F3D56"/>
<path d="M88.488 44.2653L90.6679 42.5218C88.9745 42.335 88.2787 43.2585 87.9939 43.9895C86.671 43.4402 85.2308 44.1601 85.2308 44.1601L89.5922 45.7435C89.3721 45.1558 88.9891 44.643 88.488 44.2653V44.2653Z" fill="#3F3D56"/>
<path d="M104.092 145.746C114.698 145.746 123.296 144.825 123.296 143.689C123.296 142.552 114.698 141.631 104.092 141.631C93.4859 141.631 84.8879 142.552 84.8879 143.689C84.8879 144.825 93.4859 145.746 104.092 145.746Z" fill="#F0F0F0"/>
<path d="M9.79134 110.558H99.8718C102.182 110.558 104.417 111.375 106.183 112.864C107.949 114.352 109.132 116.417 109.522 118.694C109.913 120.97 109.486 123.312 108.317 125.304C107.149 127.296 105.313 128.811 103.136 129.581V136.342L96.9344 130.141H9.79134C7.19543 130.139 4.70633 129.107 2.87125 127.271C1.03617 125.435 0.00531006 122.945 0.00531006 120.349C0.00531006 117.753 1.03617 115.264 2.87125 113.428C4.70633 111.592 7.19543 110.559 9.79134 110.558V110.558Z" fill="#A8201A"/>
<path d="M14.0343 118.065H93.3443C93.5174 118.065 93.6834 117.996 93.8059 117.873C93.9283 117.751 93.997 117.585 93.997 117.412C93.997 117.239 93.9283 117.073 93.8059 116.95C93.6834 116.828 93.5174 116.759 93.3443 116.759H14.0343C13.8612 116.759 13.6951 116.828 13.5727 116.95C13.4503 117.073 13.3815 117.239 13.3815 117.412C13.3815 117.585 13.4503 117.751 13.5727 117.873C13.6951 117.996 13.8612 118.065 14.0343 118.065Z" fill="white"/>
<path d="M14.0343 122.96H93.3443C93.5174 122.96 93.6834 122.892 93.8059 122.769C93.9283 122.647 93.997 122.481 93.997 122.308C93.997 122.134 93.9283 121.968 93.8059 121.846C93.6834 121.724 93.5174 121.655 93.3443 121.655H14.0343C13.8612 121.655 13.6951 121.724 13.5727 121.846C13.4503 121.968 13.3815 122.134 13.3815 122.308C13.3815 122.481 13.4503 122.647 13.5727 122.769C13.6951 122.892 13.8612 122.96 14.0343 122.96Z" fill="white"/>
<path d="M209.75 144.155C210.183 143.908 210.557 143.57 210.846 143.164C211.134 142.757 211.33 142.293 211.419 141.803C211.508 141.312 211.489 140.809 211.362 140.327C211.236 139.845 211.005 139.396 210.687 139.013L214.65 108.225L207.244 108.536L205.678 138.702C205.069 139.28 204.694 140.06 204.623 140.896C204.552 141.732 204.79 142.565 205.292 143.237C205.794 143.909 206.525 144.374 207.347 144.543C208.168 144.712 209.024 144.574 209.75 144.155V144.155Z" fill="#FFB6B6"/>
<path d="M244.213 108.22L245.165 123.962L238.74 140.93L235.67 136.392L238.596 119.885L237.784 109.325L244.213 108.22Z" fill="#FFB6B6"/>
<path d="M235.014 156.757L235.802 197.224L232.344 197.76L224.867 156.342L235.014 156.757Z" fill="#FFB6B6"/>
<path d="M212.58 158.713L217.995 198.823H221.495L222.545 156.749L212.58 158.713Z" fill="#FFB6B6"/>
<path d="M222.768 87.6422C226.743 87.6422 229.966 84.4194 229.966 80.4439C229.966 76.4684 226.743 73.2456 222.768 73.2456C218.792 73.2456 215.569 76.4684 215.569 80.4439C215.569 84.4194 218.792 87.6422 222.768 87.6422Z" fill="#FFB6B6"/>
<path d="M228.824 83.494C229.069 84.033 229.454 83.6959 229.903 83.3281C230.739 82.6419 231.227 81.5694 231.507 80.5473C231.99 78.848 232.034 77.0536 231.635 75.3326C231.227 73.608 230.276 72.0598 228.923 70.9154C228.614 70.6563 228.278 70.4318 227.92 70.2458C226.713 69.6331 225.288 69.6066 223.95 69.8054C222.193 70.0757 220.505 70.6814 218.977 71.5895C218.284 71.956 217.679 72.4706 217.206 73.0968C216.974 73.4123 216.822 73.7804 216.766 74.1684C216.711 74.5564 216.751 74.9523 216.885 75.3207C216.908 75.3849 216.947 75.4419 217 75.4856C217.096 75.5363 217.208 75.5487 217.313 75.5205C218.401 75.3714 219.503 75.3749 220.589 75.5309C220.74 75.532 220.887 75.5679 221.021 75.6356C221.155 75.7034 221.272 75.8012 221.362 75.9213C221.423 76.1344 221.471 76.351 221.505 76.5699C221.751 77.228 222.838 77.0665 223.247 77.6376C223.504 77.9964 223.391 78.5062 223.57 78.9095C223.858 79.5563 224.735 79.659 225.434 79.5478C226.133 79.4366 226.889 79.2163 227.517 79.5437C228.121 79.8591 228.385 80.5759 228.537 81.2406C228.685 81.8859 228.564 82.9223 228.824 83.494Z" fill="#2F2E41"/>
<path d="M235.894 134.186L238.914 141.248L235.894 150.751V160.587L224.326 160.657L224.07 148.561L222.514 160.657H210.735L208.555 136.412L211.683 130.675L235.894 134.186Z" fill="#2F2E41"/>
<path d="M220.456 89.9984L219.605 91.5753C219.605 91.5753 212.264 93.0055 208.555 97.0454L213.533 107.21L208.923 136.647L236.104 134.835L237.069 112.17L241.159 96.3184C241.159 96.3184 234.068 91.4552 231.009 91.9666L229.938 89.9984H220.456Z" fill="#A8201A"/>
<path d="M215.542 98.1039L208.555 97.0454C208.555 97.0454 206.643 108.264 206.658 110.825L215.091 112.17L215.542 98.1039Z" fill="#A8201A"/>
<path d="M237.82 97.0341L241.159 96.3183C241.159 96.3183 242.447 100.406 244.572 110.031L235.894 113.059L237.82 97.0341Z" fill="#A8201A"/>
<path d="M222.173 201.456L209.603 201.455V201.296C209.603 199.999 210.119 198.754 211.036 197.837C211.954 196.919 213.198 196.404 214.496 196.403H214.496L222.174 196.404L222.173 201.456Z" fill="#2F2E41"/>
<path d="M237.324 199.532L224.902 201.456L224.877 201.298C224.679 200.016 224.998 198.707 225.764 197.66C226.53 196.613 227.681 195.913 228.964 195.715L228.964 195.715L236.551 194.54L237.324 199.532Z" fill="#2F2E41"/>
<path d="M272.906 202H162.479C162.402 202 162.328 201.969 162.274 201.915C162.22 201.861 162.189 201.787 162.189 201.71C162.189 201.633 162.22 201.56 162.274 201.505C162.328 201.451 162.402 201.42 162.479 201.42H272.906C272.983 201.42 273.056 201.451 273.111 201.505C273.165 201.56 273.195 201.633 273.195 201.71C273.195 201.787 273.165 201.861 273.111 201.915C273.056 201.969 272.983 202 272.906 202Z" fill="#CACACA"/>
</g>
<defs>
<clipPath id="clip0_24_131">
<rect width="273.195" height="202" fill="white"/>
</clipPath>
</defs>
</svg>
