<svg width="50" height="50" viewBox="0 0 50 50" fill="none" xmlns="http://www.w3.org/2000/svg">
<path d="M25 0C11.1895 0 0 11.1895 0 25C0 38.8105 11.1895 50 25 50C38.8105 50 50 38.8105 50 25C50 11.1895 38.8105 0 25 0ZM39.5161 27.8226C39.5161 28.4879 38.9718 29.0323 38.3065 29.0323H29.0323V38.3065C29.0323 38.9718 28.4879 39.5161 27.8226 39.5161H22.1774C21.5121 39.5161 20.9677 38.9718 20.9677 38.3065V29.0323H11.6935C11.0282 29.0323 10.4839 28.4879 10.4839 27.8226V22.1774C10.4839 21.5121 11.0282 20.9677 11.6935 20.9677H20.9677V11.6935C20.9677 11.0282 21.5121 10.4839 22.1774 10.4839H27.8226C28.4879 10.4839 29.0323 11.0282 29.0323 11.6935V20.9677H38.3065C38.9718 20.9677 39.5161 21.5121 39.5161 22.1774V27.8226Z" fill="#A8201A"/>
</svg>
