<svg width="237" height="200" viewBox="0 0 237 200" fill="none" xmlns="http://www.w3.org/2000/svg">
<g clip-path="url(#clip0_24_26)">
<path d="M193.018 96.5089C193.018 99.3187 192.9 102.1 192.663 104.853C192.477 107.002 192.224 109.131 191.902 111.242C191.56 113.476 191.141 115.683 190.645 117.864V117.867C190.321 119.302 189.965 120.725 189.577 122.137C188.452 126.24 187.052 130.264 185.388 134.18C185.026 135.032 184.652 135.878 184.267 136.718C182.808 139.901 181.176 143 179.376 146.002C174.328 154.434 168.027 162.048 160.69 168.584C159.896 169.29 159.091 169.985 158.275 170.667C140.95 185.14 119.083 193.053 96.5089 193.018C43.2078 193.018 0 149.81 0 96.5089C0 43.2078 43.2078 -2.53682e-06 96.5089 -2.53682e-06C118.306 -0.0343716 139.467 7.3437 156.518 20.9228C157.317 21.5562 158.106 22.2037 158.885 22.8656C162.687 26.09 166.236 29.6022 169.499 33.371H169.501C184.7 50.891 193.052 73.3151 193.018 96.5089V96.5089Z" fill="#F2F2F2"/>
<path d="M28.4893 113.18C19.2957 107.708 12.3567 97.4817 13.2576 86.821C21.6628 94.8656 32.6425 99.6779 44.2543 100.406C48.7334 100.671 53.7429 100.499 57.0401 103.542C59.0917 105.436 60.0467 108.287 60.2034 111.074C60.36 113.862 59.8016 116.635 59.2461 119.371L59.4372 120.041C48.7386 120.081 37.6829 118.651 28.4893 113.18Z" fill="#E6E6E6"/>
<path d="M13.4818 86.8096C17.1654 94.8627 23.2928 101.55 30.9937 105.923C32.6492 106.849 34.4092 107.645 36.2796 108.014C38.1054 108.36 39.9906 108.211 41.7392 107.582C43.3814 107.028 44.997 106.271 46.7453 106.126C48.588 105.974 50.2939 106.684 51.6343 107.93C53.2742 109.453 54.2689 111.475 55.1729 113.486C56.1767 115.719 57.1839 118.054 59.1083 119.66C59.3415 119.855 59.026 120.205 58.7932 120.011C55.4449 117.217 54.8984 112.538 52.222 109.248C50.9731 107.713 49.254 106.545 47.2117 106.575C45.4258 106.602 43.7591 107.381 42.1012 107.956C40.3603 108.56 38.6164 108.844 36.7786 108.578C34.8986 108.306 33.1037 107.578 31.4318 106.697C27.6553 104.673 24.2207 102.067 21.2536 98.9758C17.8477 95.4665 15.0673 91.4004 13.0326 86.9534C12.9068 86.6781 13.3568 86.5362 13.4818 86.8096H13.4818Z" fill="white"/>
<path d="M28.4312 104.661C27.5222 105.853 26.219 106.684 24.7542 107.004C23.2894 107.324 21.7584 107.113 20.4348 106.409C20.1674 106.266 20.3777 105.843 20.6454 105.987C21.8768 106.645 23.3029 106.841 24.6663 106.54C26.0297 106.239 27.2406 105.461 28.0805 104.345C28.2632 104.103 28.6129 104.42 28.4312 104.661L28.4312 104.661Z" fill="white"/>
<path d="M40.9435 107.972C40.561 104.931 39.0463 102.146 36.7014 100.172C36.469 99.9768 36.7844 99.6263 37.0166 99.8214C39.4529 101.88 41.0233 104.782 41.4144 107.947C41.4515 108.249 40.9804 108.272 40.9435 107.972V107.972Z" fill="white"/>
<path d="M18.4325 95.2452C18.8803 94.8571 19.2248 94.3638 19.4349 93.8097C19.645 93.2556 19.7141 92.658 19.6362 92.0705C19.5953 91.7694 20.0665 91.7462 20.1071 92.0454C20.1902 92.6948 20.1129 93.3547 19.8822 93.9675C19.6514 94.5802 19.2741 95.1271 18.7832 95.5604C18.7404 95.6051 18.6821 95.6318 18.6202 95.6351C18.5584 95.6384 18.4976 95.618 18.4503 95.5781C18.404 95.5362 18.3762 95.4777 18.3729 95.4153C18.3696 95.353 18.391 95.2918 18.4325 95.2452V95.2452Z" fill="white"/>
<path d="M43.0166 66.1677C43.0475 66.355 43.0784 66.5423 43.1128 66.7314C43.5409 69.2474 44.1727 71.7244 45.002 74.1381C45.0631 74.3257 45.1279 74.515 45.1944 74.7004C47.2542 80.4942 50.3719 85.8552 54.3887 90.5108C55.9889 92.362 57.7275 94.0887 59.5896 95.676C62.1614 97.8681 65.1242 100.04 66.7731 102.87C66.9484 103.164 67.1054 103.468 67.2432 103.781L60.2401 119.756C60.206 119.784 60.1754 119.814 60.1412 119.843L59.8907 120.493C59.789 120.418 59.6851 120.338 59.5833 120.263C59.5241 120.22 59.4665 120.173 59.4073 120.129C59.3683 120.099 59.3293 120.069 59.2925 120.044C59.2795 120.034 59.2665 120.024 59.2571 120.016C59.2202 119.991 59.1886 119.964 59.1554 119.941C58.5733 119.494 57.9933 119.043 57.4154 118.587C57.4117 118.585 57.4117 118.585 57.4097 118.58C53.0154 115.094 48.8736 111.21 45.453 106.821C45.3501 106.689 45.2435 106.555 45.1439 106.416C43.613 104.429 42.2471 102.32 41.0598 100.111C40.4135 98.8989 39.829 97.655 39.3085 96.384C37.97 93.0973 37.1568 89.6205 36.8987 86.081C36.3853 79.0252 38.1341 71.8836 42.6664 66.5703C42.7824 66.4344 42.8969 66.302 43.0166 66.1677Z" fill="#E6E6E6"/>
<path d="M43.2036 66.2925C41.2963 74.9402 42.1623 83.969 45.6786 92.0965C46.4425 93.8331 47.3686 95.5283 48.6397 96.9492C49.8893 98.3246 51.4844 99.3404 53.2593 99.8909C54.9039 100.437 56.6495 100.806 58.1327 101.743C59.696 102.73 60.63 104.325 60.9505 106.126C61.3427 108.33 60.9195 110.543 60.4306 112.693C59.8876 115.08 59.2859 117.551 59.8557 119.992C59.9247 120.288 59.4618 120.378 59.3929 120.082C58.4015 115.836 60.782 111.771 60.626 107.533C60.5532 105.555 59.884 103.587 58.2348 102.382C56.7926 101.328 54.9929 100.947 53.3229 100.408C51.5694 99.8418 50.0062 99.0184 48.6987 97.6997C47.3612 96.3508 46.367 94.6883 45.562 92.9788C43.7655 89.0887 42.5919 84.9404 42.0841 80.6857C41.4776 75.8331 41.7057 70.9126 42.7584 66.1369C42.8237 65.8413 43.2685 65.9989 43.2036 66.2925V66.2925Z" fill="white"/>
<path d="M44.3923 89.5461C42.9486 89.9509 41.408 89.8294 40.0456 89.2032C38.6833 88.577 37.5878 87.4869 36.955 86.1277C36.8279 85.8522 37.25 85.6417 37.3773 85.9176C37.9642 87.1844 38.9847 88.1997 40.2545 88.7802C41.5244 89.3608 42.9599 89.4682 44.302 89.0833C44.5938 89 44.6824 89.4633 44.3923 89.5461H44.3923Z" fill="white"/>
<path d="M52.3889 99.7236C53.9144 97.0651 54.3818 93.9294 53.698 90.9415C53.63 90.6456 54.0929 90.5557 54.1608 90.8513C54.8666 93.9618 54.3735 97.224 52.78 99.987C52.6279 100.25 52.2376 99.9854 52.3889 99.7236Z" fill="white"/>
<path d="M42.0778 76.0085C42.669 75.9682 43.241 75.7818 43.7423 75.4658C44.2437 75.1499 44.6588 74.7144 44.9502 74.1984C45.0989 73.9334 45.489 74.1985 45.3413 74.4618C45.0167 75.0304 44.5577 75.5108 44.0045 75.8611C43.4514 76.2114 42.8208 76.4209 42.168 76.4713C42.1069 76.4812 42.0443 76.4675 41.9929 76.4329C41.9416 76.3983 41.9053 76.3454 41.8915 76.285C41.8798 76.2237 41.8929 76.1602 41.9278 76.1085C41.9626 76.0567 42.0165 76.0207 42.0778 76.0085V76.0085Z" fill="white"/>
<path d="M66.8525 22.368L78.6648 160.645L55.0402 162.421V24.1272C57.8553 22.2645 61.8963 21.9731 66.8525 22.368Z" fill="#CCCCCC"/>
<path d="M125.16 22.368L113.348 160.645L136.972 162.421V24.1272C134.157 22.2645 130.116 21.9731 125.16 22.368Z" fill="#CCCCCC"/>
<path d="M133.435 168.137H58.3263C57.1219 168.135 55.9672 167.656 55.1156 166.805C54.264 165.953 53.785 164.798 53.7836 163.594V26.1566C53.785 24.9522 54.264 23.7976 55.1157 22.946C55.9673 22.0944 57.1219 21.6153 58.3263 21.614H133.435C134.639 21.6153 135.794 22.0944 136.646 22.946C137.497 23.7976 137.976 24.9522 137.978 26.1566V163.594C137.976 164.798 137.497 165.953 136.646 166.805C135.794 167.656 134.639 168.135 133.435 168.137V168.137ZM58.3263 23.1219C57.5217 23.1228 56.7503 23.4428 56.1814 24.0117C55.6125 24.5806 55.2925 25.352 55.2916 26.1566V163.594C55.2925 164.398 55.6125 165.17 56.1814 165.739C56.7503 166.308 57.5217 166.628 58.3263 166.629H133.435C134.24 166.628 135.011 166.308 135.58 165.739C136.149 165.17 136.469 164.398 136.47 163.594V26.1566C136.469 25.352 136.149 24.5806 135.58 24.0117C135.011 23.4428 134.24 23.1228 133.435 23.1219L58.3263 23.1219Z" fill="#CCCCCC"/>
<path d="M137.224 44.4846H54.5376V45.9925H137.224V44.4846Z" fill="#CCCCCC"/>
<path d="M137.224 69.6171H54.5376V71.125H137.224V69.6171Z" fill="#CCCCCC"/>
<path d="M81.37 22.3679H79.8621V90.9797H81.37V22.3679Z" fill="#CCCCCC"/>
<path d="M111.899 22.3679H110.391V90.9797H111.899V22.3679Z" fill="#CCCCCC"/>
<path d="M146.648 172.283H47.6261C45.8264 172.283 44.1004 171.569 42.8278 170.296C41.5553 169.023 40.8403 167.297 40.8403 165.498C40.8403 163.698 41.5553 161.972 42.8278 160.699C44.1004 159.427 45.8264 158.712 47.6261 158.712H146.648C148.448 158.712 150.174 159.427 151.447 160.699C152.719 161.972 153.434 163.698 153.434 165.498C153.434 167.297 152.719 169.023 151.447 170.296C150.174 171.569 148.448 172.283 146.648 172.283V172.283Z" fill="#CCCCCC"/>
<path d="M137.224 87.4612H55.0402V92.4877H137.224V87.4612Z" fill="#CCCCCC"/>
<path d="M81.604 103.458L81.4997 103.408C75.8973 100.701 68.5608 100.704 57.711 103.417L57.5951 103.446L57.5604 103.331C56.4126 99.5679 55.1124 95.3054 57.555 93.2083C57.5892 87.0545 62.9872 82.0576 69.6175 82.0576C76.2465 82.0576 81.6437 87.052 81.6799 93.2041C85.3134 95.9822 83.5818 100.087 81.6627 103.358L81.604 103.458Z" fill="#2F2E41"/>
<path d="M116.038 90.2811C115.938 90.7798 115.729 91.2503 115.427 91.6597C115.126 92.069 114.737 92.4072 114.291 92.6503C113.844 92.8934 113.349 93.0356 112.841 93.0669C112.334 93.0982 111.825 93.0178 111.352 92.8313L91.5533 112.727L89.7869 106.55L109.451 88.0734C109.817 87.2991 110.454 86.6859 111.242 86.3501C112.03 86.0143 112.913 85.9791 113.725 86.2512C114.537 86.5233 115.221 87.0839 115.648 87.8266C116.074 88.5694 116.213 89.4427 116.038 90.2811L116.038 90.2811Z" fill="#FFB6B6"/>
<path d="M67.1059 109.435C67.1059 109.435 65.3096 113.506 69.7419 116.016C74.1741 118.526 89.6651 115.058 92.1787 114.574C94.6922 114.09 104.08 100.04 104.08 100.04L102.753 93.1504L90.3021 103.959L67.1059 109.435Z" fill="#A8201A"/>
<path d="M63.8366 131.946L64.0879 136.721C64.0879 136.721 63.3461 140.951 63.9562 141.864C64.5617 142.772 81.0841 142.887 81.0841 142.887C81.0841 142.887 82.1758 137.001 83.1162 131.85L63.8366 131.946Z" fill="#FFB6B6"/>
<path d="M111.341 195.084L114.795 194.386L113.806 180.434L108.708 181.464L111.341 195.084Z" fill="#FFB6B6"/>
<path d="M116.288 176.927L119.5 175.484L115.334 162.134L110.594 164.265L116.288 176.927Z" fill="#FFB6B6"/>
<path d="M119.086 169.406L113.039 172.829L98.1276 148.867C87.6595 155.92 77.4231 159.297 67.1039 161.1C63.615 161.721 60.0578 161.406 59.388 157.855C59.3567 157.689 59.3317 157.522 59.3131 157.354C58.9011 153.475 63.726 148.504 64.3393 143.758L77.544 142.965L79.1724 145.053L94.4432 135.665C97.5142 133.776 101.553 134.798 103.465 137.946C103.566 138.112 103.66 138.282 103.746 138.457L119.086 169.406Z" fill="#2F2E41"/>
<path d="M115.385 185.525L108.466 186.168L95.9219 160.512C83.4824 162.652 71.7469 163.337 61.5962 160.749C58.1594 159.885 56.0586 156.336 56.9039 152.823C56.9435 152.659 56.9891 152.496 57.041 152.336C58.2559 148.629 61.4359 146.006 63.9413 141.93L82.2421 142.208L80.198 149.26L97.9759 146.96C101.551 146.497 104.816 149.085 105.269 152.74C105.293 152.933 105.308 153.127 105.316 153.321L115.385 185.525Z" fill="#2F2E41"/>
<path d="M70.9823 99.8107C75.0864 99.8107 78.4135 96.4837 78.4135 92.3796C78.4135 88.2755 75.0864 84.9484 70.9823 84.9484C66.8782 84.9484 63.5512 88.2755 63.5512 92.3796C63.5512 96.4837 66.8782 99.8107 70.9823 99.8107Z" fill="#FFB6B6"/>
<path d="M66.6259 102.493L73.4395 103.295C73.7269 103.329 73.9965 103.451 74.2108 103.646C74.4252 103.84 74.5736 104.096 74.6354 104.379L75.719 109.337L82.4737 117.292C82.4737 117.292 84.8993 121.84 83.9897 126.994C83.0802 132.149 82.6804 135.979 82.6804 135.979C82.6804 135.979 64.5608 142.772 63.9545 141.863C63.3481 140.953 63.1513 136.822 63.1513 136.822L60.7257 109.837C60.7257 109.837 63.4545 105.289 64.9705 105.289C65.9489 105.256 65.8234 103.054 66.6259 102.493Z" fill="#A8201A"/>
<path d="M82.8647 137.638C83.8201 137.638 84.5947 136.708 84.5947 135.562C84.5947 134.415 83.8201 133.485 82.8647 133.485C81.9092 133.485 81.1346 134.415 81.1346 135.562C81.1346 136.708 81.9092 137.638 82.8647 137.638Z" fill="#A8201A"/>
<path d="M109.626 191.492L114.893 188.852L115.885 191.168L122.544 192.514C122.873 192.581 123.172 192.75 123.398 192.999C123.623 193.247 123.764 193.561 123.798 193.895C123.833 194.229 123.759 194.565 123.589 194.854C123.419 195.143 123.161 195.371 122.853 195.503L116.419 198.261L114.328 196.446L114.876 198.922L112.451 199.962L109.626 191.492Z" fill="#2F2E41"/>
<path d="M114.781 175.817L120 173.085L121.033 175.383L127.715 176.612C128.045 176.672 128.347 176.837 128.577 177.081C128.807 177.326 128.953 177.637 128.993 177.971C129.033 178.304 128.966 178.641 128.801 178.933C128.636 179.225 128.382 179.457 128.076 179.595L121.691 182.466L119.569 180.688L120.161 183.154L117.754 184.236L114.781 175.817Z" fill="#2F2E41"/>
<path d="M66.7367 90.0487C64.7734 90.0519 62.8573 89.4473 61.2513 88.3181L61.1977 88.2806V88.2151C61.1998 86.3161 61.9552 84.4955 63.298 83.1527C64.6408 81.8099 66.4614 81.0545 68.3605 81.0524H71.3764C73.2754 81.0545 75.096 81.8099 76.4388 83.1527C77.7817 84.4955 78.537 86.3161 78.5391 88.2151C78.5371 88.6498 78.3655 89.0665 78.0609 89.3765C77.7562 89.6865 77.3425 89.8653 76.908 89.8748L66.9061 90.0472C66.8497 90.0482 66.793 90.0487 66.7367 90.0487Z" fill="#2F2E41"/>
<path d="M79.0418 86.8395C80.0035 86.2843 80.1642 84.7623 79.4008 83.44C78.6373 82.1177 77.2389 81.4959 76.2772 82.0511C75.3156 82.6063 75.1549 84.1283 75.9183 85.4506C76.6817 86.7729 78.0802 87.3947 79.0418 86.8395Z" fill="#2F2E41"/>
<path d="M64.0017 85.3643C65.0813 84.2847 65.32 82.773 64.5348 81.9878C63.7497 81.2026 62.2379 81.4413 61.1583 82.5209C60.0786 83.6005 59.84 85.1123 60.6251 85.8975C61.4103 86.6827 62.9221 86.444 64.0017 85.3643Z" fill="#2F2E41"/>
<path d="M129.769 153.308H122.352C122.184 153.308 122.019 153.344 121.867 153.414C121.715 153.485 121.58 153.587 121.472 153.715C121.199 153.665 120.917 153.68 120.651 153.76C120.384 153.839 120.14 153.981 119.939 154.173C119.738 154.365 119.585 154.602 119.494 154.865C119.402 155.128 119.374 155.408 119.412 155.684C119.449 155.959 119.552 156.222 119.711 156.45C119.87 156.679 120.081 156.866 120.326 156.997C120.572 157.128 120.845 157.199 121.123 157.204C121.401 157.209 121.676 157.148 121.926 157.026L122.541 159.025C122.614 159.262 122.761 159.469 122.96 159.616C123.16 159.763 123.401 159.843 123.649 159.843H128.472C128.719 159.843 128.961 159.763 129.16 159.616C129.359 159.469 129.506 159.262 129.579 159.025L130.877 154.808C130.93 154.635 130.942 154.451 130.911 154.273C130.881 154.094 130.809 153.925 130.701 153.779C130.593 153.633 130.453 153.514 130.291 153.433C130.129 153.351 129.95 153.308 129.769 153.308V153.308ZM121.159 156.701C120.826 156.701 120.506 156.569 120.271 156.333C120.035 156.098 119.903 155.778 119.903 155.445C119.903 155.111 120.035 154.792 120.271 154.556C120.506 154.32 120.826 154.188 121.159 154.188C121.182 154.188 121.204 154.194 121.226 154.195C121.176 154.397 121.182 154.609 121.244 154.808L121.775 156.534C121.588 156.642 121.376 156.7 121.159 156.701V156.701Z" fill="#3F3D56"/>
<path d="M96.6477 147.853C96.1412 147.9 95.6306 147.835 95.1518 147.663C94.673 147.491 94.2378 147.216 93.8767 146.858C93.5156 146.5 93.2374 146.067 93.0618 145.589C92.8861 145.112 92.8173 144.602 92.8601 144.095L68.12 130.837L73.5312 127.373L96.8725 140.909C97.7193 141.037 98.4895 141.471 99.0372 142.13C99.585 142.788 99.8722 143.625 99.8445 144.48C99.8168 145.336 99.4761 146.153 98.8869 146.774C98.2977 147.396 97.501 147.779 96.6477 147.853V147.853Z" fill="#FFB6B6"/>
<path d="M64.2595 106.473C64.2595 106.473 59.8446 105.92 58.7115 110.886C57.5784 115.853 65.3455 129.697 66.5305 131.966C67.7156 134.235 83.8677 139.197 83.8677 139.197L90.0872 135.949L76.1612 127.123L64.2595 106.473Z" fill="#A8201A"/>
<path d="M95.3779 85.9532H96.8859C97.6191 85.9532 98.3223 86.2445 98.8407 86.763C99.3592 87.2814 99.6504 87.9846 99.6504 88.7178H92.6133C92.6133 87.9846 92.9046 87.2814 93.4231 86.763C93.9415 86.2445 94.6447 85.9532 95.3779 85.9532V85.9532Z" fill="#CCCCCC"/>
<path d="M47.5612 34.3726C55.8119 34.3726 62.5004 27.6841 62.5004 19.4334C62.5004 11.1827 55.8119 4.49414 47.5612 4.49414C39.3105 4.49414 32.6219 11.1827 32.6219 19.4334C32.6219 27.6841 39.3105 34.3726 47.5612 34.3726Z" fill="#FF6584"/>
<path d="M93.3016 18.6549C89.3479 14.5074 84.7562 10.7238 79.3204 8.72439C77.8063 8.16509 76.2363 7.77055 74.6376 7.54761C74.6247 7.54585 74.6126 7.54845 74.5998 7.54741C74.5738 7.54071 74.5474 7.53554 74.5208 7.53191C72.2849 7.24707 70.0154 7.38408 67.83 7.93585C66.7613 8.20404 65.7187 8.56724 64.7147 9.02111C63.7071 9.51266 62.7308 10.0659 61.7914 10.6778C59.803 11.868 57.6138 12.6847 55.3317 13.0876C54.1862 13.2939 53.026 13.4077 51.8623 13.4281C50.8525 13.4484 49.9003 13.4835 48.9436 13.8483C47.9216 14.2326 47.0036 14.8504 46.2629 15.6525C45.5221 16.4546 44.9791 17.4187 44.6771 18.4679C44.6538 18.5613 44.6608 18.6597 44.6971 18.7489C44.7334 18.8381 44.7971 18.9135 44.879 18.9641C45.1378 19.1494 45.3901 19.3597 45.662 19.5249C45.9039 19.6356 46.1622 19.706 46.4268 19.7335C46.8591 19.8247 47.292 19.9132 47.7254 19.9991C49.322 20.3155 50.9252 20.5955 52.5351 20.8392C55.7926 21.3323 59.0678 21.6797 62.3605 21.8813C68.9567 22.2809 75.5756 22.0819 82.136 21.287C85.823 20.8404 89.4849 20.207 93.1077 19.3893C93.181 19.3678 93.2476 19.3278 93.3009 19.2731C93.3543 19.2183 93.3925 19.1507 93.412 19.0768C93.4315 19.0029 93.4316 18.9253 93.4123 18.8513C93.3929 18.7774 93.3548 18.7097 93.3016 18.6549V18.6549Z" fill="#E6E6E6"/>
<path d="M48.2702 28.6434C46.756 28.0841 45.186 27.6896 43.5874 27.4666C43.5745 27.4649 43.5623 27.4675 43.5496 27.4664C43.5236 27.4597 43.4972 27.4545 43.4706 27.4509C41.2347 27.1661 38.9652 27.3031 36.7797 27.8549C35.711 28.123 34.6684 28.4862 33.6644 28.9401C32.6568 29.4317 31.6806 29.9849 30.7412 30.5968C28.7528 31.787 26.5636 32.6037 24.2815 33.0066C23.136 33.2129 21.9758 33.3267 20.812 33.3472C19.8023 33.3674 18.85 33.4025 17.8933 33.7673C16.8714 34.1516 15.9534 34.7694 15.2127 35.5715C14.4719 36.3736 13.9289 37.3377 13.6269 38.3869C13.6036 38.4803 13.6106 38.5787 13.6469 38.6679C13.6832 38.7571 13.7469 38.8325 13.8288 38.8831C14.0876 39.0684 14.3399 39.2787 14.6118 39.4439C14.8537 39.5546 15.112 39.625 15.3766 39.6525C15.8089 39.7437 16.2417 39.8322 16.6751 39.9181C18.2717 40.2345 19.875 40.5145 21.4849 40.7582C24.7424 41.2513 28.0175 41.5987 31.3102 41.8003C37.9065 42.1998 44.5254 42.0009 51.0858 41.206C54.7727 40.7594 58.4347 40.126 62.0575 39.3083C62.1308 39.2868 62.1974 39.2468 62.2507 39.192C62.304 39.1373 62.3423 39.0697 62.3618 38.9958C62.3813 38.9219 62.3814 38.8443 62.362 38.7703C62.3427 38.6964 62.3046 38.6287 62.2514 38.5739C58.2977 34.4264 53.706 30.6428 48.2702 28.6434Z" fill="#E6E6E6"/>
<path d="M156.003 140.013L144.515 124.921L135.45 130.046L154.659 152.857L156.003 140.013Z" fill="#3F3D56"/>
<path d="M182.467 115.479C182.722 121.804 183.702 128.079 185.388 134.18C185.026 135.032 184.652 135.878 184.267 136.718C182.808 139.901 181.176 143 179.376 146.002C174.328 154.434 168.028 162.048 160.69 168.584C159.896 169.29 159.091 169.985 158.275 170.667C153.623 164.254 151.112 157.176 150.119 149.893C149.993 148.968 149.89 148.033 149.812 147.103V147.098C149.622 144.838 149.561 142.569 149.629 140.302C149.632 140.121 149.637 139.938 149.644 139.754C149.732 137.332 149.951 134.904 150.28 132.499V132.496C150.318 132.22 150.355 131.943 150.398 131.667C150.519 130.837 150.654 130.008 150.803 129.184C151.666 124.429 152.87 119.743 154.407 115.162V115.16C154.449 115.027 154.492 114.896 154.54 114.765C154.706 114.268 154.874 113.775 155.048 113.282C155.058 113.244 155.072 113.206 155.088 113.169C155.311 112.526 155.54 111.888 155.774 111.254C155.837 111.078 155.902 110.902 155.97 110.726C156.234 110.02 156.503 109.319 156.777 108.628C156.862 108.407 156.95 108.185 157.038 107.967C157.106 107.798 157.171 107.63 157.242 107.464V107.462C157.641 106.474 158.046 105.506 158.456 104.556C159.604 101.887 160.785 99.3765 161.936 97.0618L161.939 97.0593C166.717 87.4763 171.06 81.2535 171.06 81.2535L187.368 86.5313C185.423 89.982 183.917 95.0713 183.093 101.075C182.458 105.848 182.248 110.667 182.467 115.476L182.467 115.479Z" fill="#3F3D56"/>
<path d="M155.362 113.943C155.266 113.72 155.158 113.501 155.048 113.282C154.474 112.172 153.736 111.156 152.859 110.266C152.728 110.133 152.592 110 152.451 109.874C150.938 108.48 149.097 107.49 147.099 106.995C145.101 106.501 143.011 106.517 141.021 107.044L141.011 107.05L140.936 107.07L140.953 107.155C141.029 107.553 141.138 107.944 141.28 108.324C141.318 108.427 141.36 108.525 141.403 108.623C141.421 108.668 141.443 108.708 141.463 108.753C141.463 108.753 141.461 108.756 141.466 108.756C141.466 108.759 141.468 108.761 141.468 108.764C141.516 108.857 141.561 108.952 141.612 109.043C141.509 108.944 141.411 108.844 141.315 108.741C141.222 108.645 141.137 108.545 141.051 108.444C140.758 108.103 140.494 107.738 140.26 107.354L140.219 107.286L140.149 107.313C139.201 107.642 138.296 108.085 137.455 108.633L137.364 108.693C136.722 109.115 135.999 109.397 135.24 109.52C134.482 109.644 133.707 109.607 132.964 109.412C131.792 109.11 130.571 109.055 129.377 109.25C128.184 109.445 127.044 109.886 126.03 110.545C125.358 110.983 124.75 111.513 124.225 112.119C124.18 112.172 124.135 112.227 124.089 112.28C123.994 112.395 123.903 112.513 123.815 112.634C122.871 113.897 122.291 115.395 122.139 116.964L122.134 117.022L122.182 117.055C123.032 117.638 123.994 118.038 125.007 118.231C124.371 118.32 123.726 118.336 123.087 118.279H123.084C122.794 118.255 122.505 118.214 122.219 118.158L122.167 118.148H122.164L122.099 118.135L122.109 118.256C122.184 119.792 122.667 121.28 123.509 122.566L123.534 122.602C123.543 122.614 123.552 122.628 123.559 122.642C123.916 123.187 124.212 123.769 124.444 124.378C125.031 125.892 125.161 127.545 124.816 129.131C124.425 130.828 124.555 132.603 125.188 134.225C125.821 135.846 126.928 137.24 128.364 138.224C129.626 139.092 131.097 139.608 132.624 139.719C132.833 139.737 133.044 139.747 133.255 139.747C134.464 139.751 135.66 139.502 136.766 139.016L136.806 139L136.816 138.955C137.029 138.269 137.328 137.611 137.706 137C137.582 137.482 137.52 137.978 137.52 138.475V138.641L137.663 138.558C137.787 138.485 137.912 138.407 138.025 138.334C138.704 137.891 139.319 137.357 139.852 136.746C140.061 136.505 140.272 136.271 140.493 136.037L140.496 136.035C140.926 135.577 141.381 135.13 141.853 134.703C142.858 133.8 143.934 132.979 145.07 132.247C146.205 131.518 147.392 130.873 148.621 130.317H148.624C148.762 130.252 148.903 130.189 149.041 130.129C149.653 129.862 150.242 129.546 150.803 129.184C150.823 129.171 150.84 129.161 150.858 129.149C153.288 127.558 155.074 125.156 155.898 122.372C156.723 119.587 156.533 116.601 155.362 113.943L155.362 113.943Z" fill="#A8201A"/>
<path opacity="0.15" d="M125.23 132.699C125.161 133.005 125.109 133.314 125.074 133.625C124.606 132.146 124.538 130.57 124.878 129.057C124.93 128.825 124.969 128.591 125 128.356C125.464 129.757 125.544 131.257 125.23 132.699Z" fill="black"/>
<path opacity="0.15" d="M125.42 121.797C124.675 121.901 123.92 121.904 123.175 121.808C122.98 121.44 122.811 121.058 122.671 120.666C123.501 121.226 124.436 121.611 125.42 121.797V121.797Z" fill="black"/>
<path opacity="0.15" d="M123.115 118.198C122.841 118.901 122.658 119.636 122.572 120.386C122.343 119.672 122.207 118.931 122.169 118.182L122.163 118.061L122.282 118.084C122.558 118.136 122.836 118.174 123.115 118.198Z" fill="black"/>
<path opacity="0.15" d="M126.094 110.471C127.107 109.811 128.247 109.369 129.44 109.173C130.633 108.978 131.854 109.033 133.025 109.336C133.768 109.532 134.544 109.57 135.303 109.446C136.061 109.323 136.785 109.04 137.428 108.618L137.518 108.558C138.359 108.009 139.263 107.565 140.211 107.236L140.283 107.211L140.323 107.276C140.698 107.896 141.152 108.464 141.674 108.966C141.357 108.376 141.135 107.739 141.016 107.079L140.999 106.992L141.085 106.969C142.951 106.475 144.907 106.43 146.794 106.836C148.681 107.242 150.446 108.089 151.943 109.306C153.441 110.524 154.629 112.079 155.412 113.843C156.194 115.608 156.548 117.533 156.445 119.46C156.049 117.889 155.345 116.411 154.375 115.114C153.404 113.816 152.185 112.725 150.789 111.902C149.393 111.078 147.848 110.541 146.242 110.319C144.637 110.098 143.004 110.197 141.437 110.612L141.351 110.634L141.368 110.721C141.487 111.381 141.709 112.018 142.026 112.609C141.504 112.107 141.05 111.538 140.675 110.919L140.636 110.853L140.563 110.878C139.615 111.208 138.711 111.652 137.871 112.201L137.78 112.261C137.137 112.683 136.413 112.965 135.655 113.089C134.896 113.212 134.12 113.175 133.377 112.978C131.431 112.473 129.371 112.659 127.547 113.504C125.722 114.348 124.248 115.799 123.374 117.609C122.985 117.422 122.608 117.212 122.245 116.978L122.195 116.947L122.201 116.889C122.326 115.596 122.741 114.347 123.415 113.236C124.089 112.124 125.005 111.179 126.094 110.471V110.471Z" fill="black"/>
<path d="M219.528 46.2539L219.289 46.0955L219.115 46.3217C217.773 48.0115 216.706 49.902 215.951 51.9238C216.055 49.5946 216.463 47.289 217.163 45.0651L217.238 44.8314L217.022 44.7082C214.21 43.1159 211.214 41.8735 208.1 41.0087L207.761 40.9182C205.374 40.2634 203.153 39.113 201.241 37.5419C199.329 35.9708 197.77 34.0144 196.665 31.8002C194.097 26.7185 190.04 22.5408 185.037 19.8245C180.033 17.1081 174.32 15.9824 168.659 16.5975H168.657C168.597 16.6025 168.534 16.6101 168.473 16.6176C168.37 16.6276 168.27 16.6402 168.169 16.6528C167.963 16.6804 167.762 16.7081 167.561 16.7382C167.39 16.7634 167.217 16.791 167.046 16.8212C166.955 16.8337 166.867 16.8488 166.779 16.8664C166.691 16.8815 166.601 16.8966 166.513 16.9142H166.511C164.823 17.2333 163.169 17.7087 161.569 18.3341H161.567V18.3366L161.162 18.495C160.745 18.6659 160.331 18.8468 159.921 19.0378C159.828 19.0806 159.737 19.1258 159.644 19.1685C159.619 19.1811 159.592 19.1937 159.566 19.2087C159.303 19.3344 159.041 19.4651 158.782 19.6033C158.745 19.6209 158.707 19.641 158.669 19.6611L158.428 19.7893C157.898 20.0758 157.377 20.3799 156.865 20.7016C156.822 20.7268 156.782 20.7519 156.739 20.7795C156.694 20.8097 156.646 20.8398 156.601 20.87C156.573 20.8851 156.545 20.9052 156.518 20.9228C156.44 20.9705 156.365 21.0208 156.289 21.0736C156.138 21.1716 155.988 21.2721 155.839 21.3752C155.686 21.4782 155.535 21.5863 155.384 21.6944L155.234 21.8024L155.261 21.9884C155.286 22.1417 155.309 22.295 155.337 22.4458C155.362 22.5966 155.387 22.7449 155.415 22.8932C155.457 23.142 155.505 23.3883 155.553 23.627C155.585 23.7854 155.616 23.9412 155.651 24.0945C155.683 24.2528 155.719 24.4112 155.756 24.5695C155.829 24.8962 155.907 25.2129 155.99 25.5246C156.03 25.6804 156.073 25.8362 156.118 25.9895C156.143 26.0825 156.169 26.1755 156.196 26.266C156.216 26.3288 156.236 26.3916 156.256 26.4545C156.262 26.4746 156.267 26.4972 156.274 26.5198C156.28 26.5411 156.286 26.5621 156.294 26.5826C156.322 26.6756 156.349 26.7661 156.377 26.8541C156.392 26.9018 156.407 26.9496 156.425 26.9948C156.46 27.1029 156.498 27.2135 156.535 27.319C156.576 27.4396 156.618 27.5603 156.661 27.6784C156.671 27.7086 156.681 27.7362 156.691 27.7664C156.699 27.789 156.706 27.8116 156.716 27.8342C156.726 27.8594 156.737 27.887 156.747 27.9121C156.789 28.0252 156.832 28.1408 156.877 28.2539C156.892 28.2942 156.907 28.3369 156.925 28.3771C157.332 29.401 157.833 30.3853 158.42 31.3176C157.769 30.7597 157.143 30.1682 156.54 29.5432C155.61 28.5769 154.754 27.5428 153.977 26.4494C153.914 26.364 153.851 26.276 153.794 26.1881C153.675 26.0197 153.56 25.8513 153.447 25.6804C153.326 25.5044 153.21 25.321 153.097 25.14C153.022 25.0194 152.947 24.8962 152.874 24.7756C152.801 24.66 152.733 24.5469 152.668 24.4313L152.472 24.0945H152.469V24.097L152.193 24.3684C152.082 24.4765 151.971 24.5846 151.863 24.6927C148.485 28.0914 146.039 32.302 144.758 36.9196L144.721 37.0579L144.683 37.2011C144.61 37.4575 144.537 37.7063 144.459 37.9601V37.9626C144.384 38.2139 144.303 38.4653 144.218 38.7116C144.14 38.9453 144.06 39.1765 143.974 39.4077C143.947 39.4857 143.916 39.5636 143.884 39.6415C143.831 39.7923 143.773 39.9406 143.715 40.0913C143.688 40.1592 143.66 40.2296 143.632 40.2974C143.565 40.4633 143.497 40.6292 143.429 40.7925C143.419 40.8177 143.406 40.8453 143.394 40.8705C143.374 40.9207 143.351 40.971 143.331 41.0187C143.278 41.1394 143.223 41.2625 143.17 41.3832C143.132 41.4611 143.097 41.5415 143.062 41.6194C143.047 41.6546 143.029 41.6898 143.014 41.725C142.921 41.926 142.826 42.1246 142.725 42.3206C142.612 42.5518 142.496 42.7831 142.373 43.0093C142.265 43.2204 142.152 43.4264 142.034 43.6325C141.83 43.997 141.617 44.3589 141.396 44.7107C141.31 44.8464 141.225 44.9822 141.137 45.1179C141.117 45.1505 141.097 45.1832 141.076 45.2134C141.004 45.3315 140.928 45.4446 140.85 45.5602C140.797 45.6381 140.745 45.716 140.692 45.7914C140.604 45.9271 140.511 46.0578 140.415 46.186C140.39 46.2262 140.363 46.2639 140.335 46.3016C140.194 46.4976 140.054 46.6887 139.91 46.8797C139.905 46.8822 139.905 46.8847 139.903 46.8872C139.898 46.8872 139.898 46.8897 139.895 46.8922C139.832 46.9752 139.77 47.0581 139.704 47.1385C139.619 47.2566 139.526 47.3723 139.433 47.4854C139.282 47.6764 139.124 47.8699 138.963 48.0584C138.958 48.0634 138.955 48.0684 138.95 48.0709C138.118 49.0493 137.215 49.9665 136.251 50.8154C136.233 50.8305 136.221 50.8456 136.203 50.8581C136.068 50.9763 135.932 51.0944 135.791 51.21C135.733 51.2577 135.675 51.3055 135.618 51.3532C135.522 51.4337 135.424 51.5141 135.329 51.587C135.317 51.5985 135.305 51.6087 135.291 51.6171C135.206 51.6875 135.123 51.7529 135.037 51.8182C134.934 51.9011 134.831 51.979 134.725 52.057C134.228 52.4339 133.717 52.79 133.192 53.1251C133.114 53.1779 133.032 53.2307 132.951 53.2809C132.903 53.3111 132.856 53.3412 132.81 53.3664C132.619 53.4845 132.428 53.6001 132.237 53.7107C132.046 53.8238 131.85 53.9318 131.657 54.0374C131.242 54.2636 130.832 54.4998 130.433 54.7461C130.232 54.8718 130.031 54.9975 129.832 55.1256C129.043 55.6384 128.283 56.1871 127.553 56.7718C126.822 57.3569 126.122 57.9785 125.454 58.6341C125.371 58.7146 125.288 58.7975 125.205 58.883C125.039 59.0463 124.879 59.2122 124.725 59.3781C124.479 59.6319 124.243 59.8933 124.009 60.1572C122.776 61.5556 121.685 63.0727 120.752 64.6861C120.283 65.4917 119.857 66.3213 119.475 67.1716C119.186 67.8075 118.922 68.4585 118.683 69.1169C118.525 69.5567 118.377 70.0007 118.239 70.4489C118.171 70.6726 118.105 70.8988 118.043 71.125C117.829 71.8915 117.65 72.6656 117.505 73.4422C117.387 74.0655 117.291 74.6896 117.218 75.3146C117.18 75.6287 117.15 75.9429 117.123 76.2545C117.058 77.0205 117.025 77.7872 117.023 78.5547C117.019 80.8572 117.299 83.1513 117.857 85.3852C117.98 85.8778 118.116 86.3679 118.266 86.8554C118.342 87.0992 118.422 87.3405 118.502 87.5818C118.706 88.185 118.931 88.7823 119.178 89.3737C119.327 89.7281 119.483 90.0799 119.646 90.4293C120.684 92.6502 122.009 94.7254 123.587 96.6018C123.846 96.911 124.113 97.2151 124.388 97.5142C124.391 97.5142 124.388 97.5167 124.388 97.5167C125.072 98.2626 125.796 98.9707 126.557 99.6378H126.56C126.864 99.9067 127.173 100.167 127.487 100.419C127.49 100.417 127.49 100.419 127.49 100.419C127.806 100.676 128.126 100.922 128.452 101.161C128.616 101.279 128.782 101.397 128.95 101.515C129.279 101.749 129.615 101.974 129.958 102.191H129.96C130.302 102.412 130.649 102.624 131.001 102.825C131.707 103.229 132.431 103.609 133.175 103.953L133.3 104.011L133.429 103.953C134.621 103.416 135.851 102.965 137.108 102.603C137.384 102.523 137.663 102.45 137.94 102.38C138.639 102.206 139.342 102.061 140.051 101.942C139.361 102.289 138.694 102.681 138.056 103.116C137.56 103.45 137.073 103.815 136.583 104.217C136.419 104.35 136.256 104.488 136.093 104.629L135.686 104.981L136.196 105.149C136.382 105.21 136.568 105.27 136.754 105.325C137.007 105.406 137.259 105.479 137.505 105.547C138.043 105.697 138.584 105.831 139.129 105.946C139.262 105.974 139.393 106.001 139.526 106.029C139.785 106.079 140.046 106.13 140.307 106.175C140.318 106.178 140.329 106.179 140.34 106.18C140.612 106.225 140.885 106.268 141.157 106.306C141.662 106.378 142.167 106.436 142.672 106.479C142.728 106.486 142.783 106.489 142.841 106.491C142.964 106.502 143.085 106.512 143.208 106.519C143.479 106.537 143.753 106.549 144.027 106.559C144.047 106.559 144.065 106.562 144.085 106.562C144.223 106.567 144.361 106.572 144.5 106.574C144.5 106.574 144.5 106.577 144.502 106.574C144.64 106.577 144.778 106.579 144.917 106.579H145.681C145.824 106.579 145.967 106.582 146.113 106.582C146.314 106.582 146.518 106.584 146.719 106.587C146.772 106.587 146.827 106.59 146.882 106.59C147.204 106.595 147.525 106.602 147.847 106.61C147.867 106.61 147.887 106.612 147.907 106.612C148.229 106.622 148.551 106.632 148.873 106.647C148.943 106.65 149.013 106.652 149.086 106.657C149.395 106.67 149.704 106.685 150.014 106.703C150.102 106.708 150.192 106.715 150.283 106.72C150.516 106.733 150.752 106.748 150.986 106.765C151.124 106.773 151.26 106.783 151.398 106.796C151.956 106.838 152.512 106.886 153.07 106.941C153.256 106.956 153.442 106.977 153.628 106.997C154.125 107.049 154.625 107.107 155.126 107.17C155.349 107.195 155.573 107.225 155.797 107.256C155.822 107.258 155.847 107.261 155.872 107.266C156.148 107.303 156.422 107.341 156.699 107.381C156.88 107.406 157.061 107.434 157.242 107.462C157.428 107.489 157.614 107.517 157.8 107.55C157.9 107.565 158.001 107.582 158.104 107.6C158.345 107.638 158.589 107.678 158.833 107.723C158.855 107.725 158.876 107.728 158.898 107.733C159.416 107.824 159.936 107.919 160.454 108.022C160.758 108.08 161.059 108.14 161.361 108.203C161.597 108.251 161.833 108.301 162.07 108.351C162.11 108.359 162.15 108.369 162.19 108.379C162.199 108.382 162.209 108.383 162.218 108.384C162.575 108.462 162.934 108.542 163.291 108.628C164.53 108.914 165.768 109.233 167.003 109.583C167.287 109.661 167.571 109.744 167.855 109.827C167.976 109.862 168.094 109.897 168.212 109.932C168.458 110.005 168.702 110.078 168.948 110.156C169.165 110.221 169.383 110.289 169.599 110.359C169.735 110.402 169.871 110.445 170.007 110.49C170.218 110.555 170.429 110.623 170.637 110.696C170.816 110.751 170.992 110.809 171.168 110.872C171.419 110.955 171.673 111.04 171.924 111.131C171.997 111.156 172.072 111.181 172.145 111.209C172.452 111.314 172.759 111.422 173.065 111.536C173.364 111.644 173.663 111.754 173.96 111.865C174.166 111.943 174.372 112.018 174.576 112.099C174.804 112.187 175.033 112.274 175.259 112.365C175.586 112.493 175.915 112.624 176.242 112.757C176.543 112.878 176.843 113.001 177.144 113.129C177.199 113.152 177.257 113.174 177.313 113.199C177.574 113.307 177.835 113.421 178.094 113.534C178.263 113.604 178.428 113.677 178.594 113.75C179.318 114.066 180.041 114.394 180.763 114.732H180.766C181.218 114.946 181.678 115.15 182.141 115.343C182.249 115.388 182.357 115.434 182.467 115.476C182.651 115.554 182.837 115.627 183.023 115.703C183.143 115.75 183.264 115.798 183.387 115.843C183.566 115.914 183.746 115.982 183.927 116.047C184.118 116.117 184.307 116.188 184.5 116.253C184.568 116.278 184.636 116.301 184.707 116.326C184.93 116.401 185.154 116.477 185.38 116.55C185.403 116.557 185.425 116.565 185.45 116.572C185.687 116.648 185.923 116.723 186.162 116.793C186.181 116.8 186.2 116.806 186.22 116.811C186.476 116.889 186.737 116.964 186.996 117.037C187.378 117.143 187.763 117.243 188.147 117.336C188.218 117.354 188.288 117.371 188.358 117.386C188.564 117.437 188.768 117.484 188.974 117.53C189.193 117.58 189.414 117.625 189.633 117.67C189.854 117.716 190.075 117.761 190.293 117.801C190.412 117.824 190.53 117.846 190.645 117.866L190.954 117.919C191.168 117.957 191.382 117.99 191.598 118.025C191.604 118.025 191.61 118.025 191.615 118.027C191.859 118.065 192.101 118.1 192.344 118.13C192.578 118.163 192.812 118.191 193.046 118.218C193.093 118.223 193.144 118.228 193.194 118.233C193.387 118.256 193.581 118.279 193.774 118.296C193.83 118.301 193.885 118.306 193.94 118.311C194.131 118.329 194.322 118.347 194.513 118.359C194.552 118.364 194.59 118.367 194.629 118.367C194.8 118.382 194.971 118.394 195.142 118.402C195.262 118.412 195.38 118.417 195.501 118.424C195.564 118.427 195.624 118.429 195.687 118.432C195.853 118.442 196.019 118.447 196.187 118.452C196.391 118.46 196.594 118.465 196.795 118.47C197.039 118.475 197.285 118.477 197.529 118.477H197.534C197.773 118.477 198.014 118.475 198.253 118.47H198.343L198.607 118.462C198.743 118.46 198.879 118.455 199.012 118.45C199.268 118.44 199.522 118.427 199.776 118.412C199.877 118.407 199.98 118.399 200.08 118.394C200.125 118.392 200.173 118.387 200.218 118.384C200.377 118.374 200.533 118.364 200.691 118.352C200.854 118.339 201.02 118.324 201.183 118.306C201.395 118.286 201.606 118.264 201.817 118.241C201.983 118.223 202.149 118.203 202.312 118.183C202.334 118.181 202.356 118.178 202.377 118.173C202.536 118.155 202.694 118.135 202.85 118.113C203.036 118.088 203.219 118.06 203.403 118.032C203.423 118.03 203.44 118.027 203.46 118.025C203.777 117.975 204.096 117.924 204.416 117.866C204.75 117.806 205.084 117.741 205.416 117.673C205.539 117.648 205.66 117.62 205.783 117.595C205.851 117.58 205.921 117.567 205.986 117.552C206.089 117.53 206.19 117.507 206.29 117.482C206.308 117.479 206.328 117.474 206.346 117.472C206.486 117.442 206.625 117.407 206.765 117.371C207.047 117.304 207.323 117.233 207.6 117.158C207.723 117.128 207.846 117.095 207.964 117.062C207.999 117.052 208.035 117.042 208.067 117.032C208.577 116.889 209.083 116.737 209.585 116.577C209.806 116.507 210.025 116.434 210.244 116.356C210.714 116.195 211.18 116.026 211.641 115.848C211.764 115.803 211.887 115.753 212.011 115.705C212.192 115.632 212.372 115.559 212.551 115.486C212.712 115.419 212.873 115.351 213.036 115.28C213.116 115.248 213.197 115.212 213.277 115.177C213.519 115.072 213.76 114.964 213.999 114.856C214.159 114.78 214.318 114.707 214.476 114.632C214.727 114.511 214.976 114.388 215.225 114.265C215.288 114.232 215.348 114.2 215.409 114.17C215.567 114.089 215.725 114.006 215.886 113.926C216.14 113.79 216.394 113.654 216.645 113.514C216.73 113.468 216.813 113.421 216.899 113.373C217.175 113.217 217.449 113.059 217.721 112.898C218.321 112.538 218.914 112.163 219.498 111.772C219.643 111.676 219.789 111.576 219.932 111.478C220.204 111.292 220.47 111.101 220.737 110.91C220.764 110.89 220.789 110.87 220.817 110.852C220.95 110.754 221.083 110.656 221.217 110.555C221.493 110.347 221.767 110.136 222.041 109.92C222.046 109.917 222.054 109.91 222.061 109.905C222.184 109.806 222.307 109.708 222.428 109.61C222.802 109.306 223.172 108.997 223.534 108.678C223.712 108.525 223.888 108.366 224.062 108.208C224.192 108.09 224.323 107.972 224.451 107.851C224.71 107.607 224.964 107.366 225.215 107.12C225.341 106.999 225.464 106.874 225.59 106.748C225.713 106.622 225.838 106.497 225.962 106.368C226.004 106.326 226.047 106.28 226.09 106.235C226.215 106.102 226.341 105.966 226.467 105.833C226.575 105.717 226.68 105.597 226.788 105.476C226.969 105.275 227.153 105.074 227.331 104.87C227.341 104.859 227.351 104.848 227.362 104.838C227.372 104.825 227.382 104.815 227.389 104.805H227.387C231.04 100.581 233.754 95.6287 235.35 90.2767C236.946 84.9247 237.387 79.2948 236.644 73.7595C235.901 68.2243 233.991 62.91 231.04 58.1682C228.09 53.4265 224.165 49.3655 219.528 46.2539L219.528 46.2539Z" fill="#A8201A"/>
<g opacity="0.15">
<path opacity="0.15" d="M168.657 16.5955C169.158 18.3951 169.912 20.1145 170.896 21.7024C169.249 20.2874 167.777 18.6801 166.512 16.9149C167.223 16.7805 167.938 16.674 168.657 16.5955Z" fill="black"/>
<path opacity="0.15" d="M144.134 44.4265C142.274 45.4417 140.534 46.6643 138.949 48.0708C141.626 44.9061 143.582 41.1972 144.682 37.2012C144.695 37.1532 144.708 37.1048 144.721 37.0567L144.759 36.9207C146.081 32.1515 148.646 27.8189 152.191 24.3662L152.47 24.0945L152.667 24.4302C153.754 26.2784 155.055 27.9922 156.542 29.5363C154.263 35.9687 149.827 41.3222 144.134 44.4265Z" fill="black"/>
<path opacity="0.15" d="M157.235 27.3075L157.198 27.4435C157.185 27.4916 157.171 27.5399 157.158 27.5879C157.084 27.8524 157.006 28.1149 156.926 28.3762C156.131 26.3169 155.573 24.1739 155.262 21.9885L155.232 21.803L155.385 21.6941C157.297 20.3199 159.375 19.1907 161.568 18.333C159.599 21.0414 158.131 24.081 157.235 27.3075Z" fill="black"/>
<path opacity="0.15" d="M131.658 54.0397C133.304 53.1387 134.845 52.0571 136.251 50.8151C133.441 54.087 131.427 57.9652 130.366 62.1458C129.305 66.3265 129.227 70.6959 130.137 74.9119C131.048 79.1278 132.922 83.0757 135.613 86.4461C138.305 89.8166 141.74 92.518 145.65 94.3388L145.777 94.3975L145.904 94.3403C148.015 93.3861 150.242 92.71 152.528 92.3287C151.101 93.0554 149.771 93.9583 148.569 95.0162L148.163 95.3677L148.673 95.5361C149.113 95.6817 149.554 95.8157 149.982 95.9345C152.497 96.6351 155.097 96.983 157.708 96.9683C169.571 96.8923 181.526 99.635 193.241 105.12C195.25 106.059 197.334 106.829 199.471 107.422C208.784 110.015 218.726 109.083 227.394 104.803C222.507 110.455 216.117 114.604 208.966 116.769C201.815 118.935 194.196 119.027 186.995 117.036C184.858 116.442 182.774 115.672 180.765 114.733C169.05 109.248 157.095 106.506 145.232 106.582C142.621 106.596 140.021 106.248 137.506 105.548C137.078 105.429 136.637 105.295 136.197 105.149L135.687 104.981L136.093 104.629C137.295 103.572 138.625 102.669 140.052 101.942C137.766 102.323 135.539 102.999 133.427 103.953L133.301 104.011L133.174 103.952C128.478 101.767 124.483 98.3194 121.632 93.9951C118.782 89.6709 117.19 84.6398 117.032 79.4631C116.875 74.2864 118.159 69.1679 120.742 64.6787C123.324 60.1895 127.104 56.5061 131.658 54.0397L131.658 54.0397Z" fill="black"/>
</g>
</g>
<defs>
<clipPath id="clip0_24_26">
<rect width="237" height="199.962" fill="white"/>
</clipPath>
</defs>
</svg>
