<svg width="25" height="28" viewBox="0 0 25 28" fill="none" xmlns="http://www.w3.org/2000/svg">
<path d="M1.75 25.375C1.75 26.0712 2.02656 26.7389 2.51884 27.2312C3.01113 27.7234 3.67881 28 4.375 28H20.125C20.8212 28 21.4889 27.7234 21.9811 27.2312C22.4734 26.7389 22.75 26.0712 22.75 25.375V7.00001H1.75V25.375ZM16.625 11.375C16.625 11.1429 16.7172 10.9204 16.8813 10.7563C17.0454 10.5922 17.2679 10.5 17.5 10.5C17.7321 10.5 17.9546 10.5922 18.1187 10.7563C18.2828 10.9204 18.375 11.1429 18.375 11.375V23.625C18.375 23.8571 18.2828 24.0796 18.1187 24.2437C17.9546 24.4078 17.7321 24.5 17.5 24.5C17.2679 24.5 17.0454 24.4078 16.8813 24.2437C16.7172 24.0796 16.625 23.8571 16.625 23.625V11.375ZM11.375 11.375C11.375 11.1429 11.4672 10.9204 11.6313 10.7563C11.7954 10.5922 12.0179 10.5 12.25 10.5C12.4821 10.5 12.7046 10.5922 12.8687 10.7563C13.0328 10.9204 13.125 11.1429 13.125 11.375V23.625C13.125 23.8571 13.0328 24.0796 12.8687 24.2437C12.7046 24.4078 12.4821 24.5 12.25 24.5C12.0179 24.5 11.7954 24.4078 11.6313 24.2437C11.4672 24.0796 11.375 23.8571 11.375 23.625V11.375ZM6.125 11.375C6.125 11.1429 6.21719 10.9204 6.38128 10.7563C6.54537 10.5922 6.76793 10.5 7 10.5C7.23206 10.5 7.45462 10.5922 7.61872 10.7563C7.78281 10.9204 7.875 11.1429 7.875 11.375V23.625C7.875 23.8571 7.78281 24.0796 7.61872 24.2437C7.45462 24.4078 7.23206 24.5 7 24.5C6.76793 24.5 6.54537 24.4078 6.38128 24.2437C6.21719 24.0796 6.125 23.8571 6.125 23.625V11.375ZM23.625 1.75001H17.0625L16.5484 0.727353C16.4395 0.50872 16.2718 0.324811 16.0641 0.196315C15.8564 0.0678189 15.6169 -0.000165592 15.3727 9.5882e-06H9.12187C8.87817 -0.000927238 8.63914 0.0668038 8.43216 0.195443C8.22517 0.324082 8.05861 0.508425 7.95156 0.727353L7.4375 1.75001H0.875C0.642935 1.75001 0.420376 1.8422 0.256281 2.00629C0.0921872 2.17038 0 2.39294 0 2.62501L0 4.37501C0 4.60707 0.0921872 4.82963 0.256281 4.99373C0.420376 5.15782 0.642935 5.25001 0.875 5.25001H23.625C23.8571 5.25001 24.0796 5.15782 24.2437 4.99373C24.4078 4.82963 24.5 4.60707 24.5 4.37501V2.62501C24.5 2.39294 24.4078 2.17038 24.2437 2.00629C24.0796 1.8422 23.8571 1.75001 23.625 1.75001V1.75001Z" fill="black"/>
</svg>
