<svg width="192" height="200" viewBox="0 0 192 200" fill="none" xmlns="http://www.w3.org/2000/svg">
<g clip-path="url(#clip0_30_107)">
<path d="M176.087 171.106L167.293 179.202L174.282 167.475C168.776 157.49 159.77 148.86 159.77 148.86C159.77 148.86 141.087 166.761 141.087 180.831C141.087 194.902 149.452 199.815 159.77 199.815C170.089 199.815 178.453 194.902 178.453 180.831C178.453 177.699 177.526 174.378 176.087 171.106Z" fill="#F2F2F2"/>
<path d="M165.031 179.641V180.334C164.99 188.396 163.63 194.686 160.963 199.115C160.925 199.181 160.884 199.242 160.846 199.308L160.547 199.126L160.262 198.947C163.222 194.164 164.269 187.404 164.307 180.372C164.31 180.145 164.314 179.915 164.31 179.685C164.3 176.709 164.118 173.697 163.826 170.772C163.806 170.545 163.782 170.315 163.757 170.085C163.352 166.226 162.769 162.539 162.171 159.335C162.13 159.109 162.085 158.882 162.041 158.659C161.007 153.241 159.953 149.316 159.713 148.448C159.685 148.341 159.668 148.283 159.665 148.269L159.991 148.176L159.994 148.173L160.324 148.08C160.327 148.094 160.386 148.29 160.482 148.654C160.849 150.013 161.804 153.704 162.741 158.573C162.782 158.793 162.827 159.019 162.868 159.246C163.356 161.845 163.833 164.75 164.211 167.799C164.307 168.564 164.393 169.32 164.468 170.065C164.496 170.295 164.52 170.525 164.54 170.751C164.856 173.914 165.02 176.877 165.031 179.641Z" fill="white"/>
<path d="M162.741 158.573C162.511 158.604 162.278 158.635 162.041 158.659C161.397 158.725 160.751 158.758 160.104 158.758C157.348 158.762 154.626 158.147 152.139 156.959C151.994 157.141 151.85 157.323 151.703 157.509C154.319 158.786 157.193 159.448 160.104 159.445C160.795 159.445 161.485 159.408 162.171 159.335C162.405 159.311 162.638 159.28 162.868 159.246C164.767 158.974 166.614 158.414 168.345 157.588C168.197 157.399 168.053 157.213 167.912 157.031C166.274 157.797 164.531 158.316 162.741 158.573V158.573Z" fill="white"/>
<path d="M164.468 170.065C164.231 170.079 163.994 170.086 163.758 170.086C163.685 170.089 163.61 170.089 163.538 170.089C160.551 170.089 157.609 169.367 154.961 167.984C152.314 166.601 150.041 164.599 148.334 162.147C148.197 162.35 148.06 162.552 147.926 162.758C149.704 165.239 152.048 167.26 154.763 168.654C157.478 170.048 160.486 170.776 163.538 170.776C163.634 170.776 163.73 170.776 163.826 170.772C164.067 170.769 164.303 170.762 164.54 170.752C168.206 170.564 171.741 169.324 174.721 167.181C174.611 166.978 174.501 166.776 174.388 166.573C171.491 168.677 168.044 169.891 164.468 170.065V170.065Z" fill="white"/>
<path d="M165.031 179.641C164.791 179.661 164.551 179.675 164.31 179.685C164.053 179.696 163.795 179.703 163.538 179.703C159.524 179.698 155.621 178.394 152.411 175.985C149.201 173.576 146.858 170.192 145.732 166.34C145.577 166.618 145.423 166.892 145.275 167.17C146.544 171.014 148.991 174.359 152.269 176.732C155.548 179.105 159.491 180.385 163.538 180.389C163.795 180.389 164.053 180.386 164.307 180.372C164.551 180.365 164.791 180.352 165.031 180.334C169.886 179.955 174.415 177.744 177.701 174.151C177.629 173.897 177.546 173.646 177.464 173.392C174.29 177.012 169.83 179.254 165.031 179.641V179.641Z" fill="white"/>
<path d="M144.462 43.2443L48.8098 31.0493C48.5521 31.0163 48.2926 30.9994 48.0328 30.9989C47.7767 30.9985 47.5209 31.0146 47.2669 31.0473C47.0134 31.0799 46.7622 31.129 46.5151 31.1944C46.2651 31.2611 46.0196 31.344 45.7803 31.4424C45.5458 31.5386 45.3174 31.6491 45.0963 31.773C44.8721 31.8979 44.6556 32.0359 44.4478 32.1863C44.2352 32.3407 44.0315 32.5069 43.8377 32.6844C43.6377 32.8669 43.4476 33.0601 43.2682 33.263C43.0841 33.4719 42.9109 33.6902 42.7491 33.9168C42.5857 34.1463 42.4324 34.3851 42.2891 34.6331C42.1458 34.8819 42.0129 35.1406 41.8903 35.4093C41.7676 35.6779 41.6558 35.9557 41.5546 36.2425C41.4499 36.539 41.3582 36.8421 41.2794 37.1518C41.2006 37.4615 41.1347 37.7765 41.0818 38.097C41.03 38.4172 40.9904 38.7426 40.9628 39.0732C40.9352 39.4039 40.9215 39.7385 40.9215 40.0771C40.9226 40.4155 40.9363 40.7527 40.9628 41.0889C40.9893 41.4251 41.0289 41.7585 41.0818 42.0891C41.1353 42.4211 41.2014 42.7498 41.2802 43.0753C41.359 43.4007 41.4508 43.7223 41.5555 44.0403C41.6566 44.3475 41.7684 44.6477 41.8911 44.9409C42.0137 45.2344 42.1466 45.5198 42.2899 45.7973C42.4332 46.0747 42.5865 46.3442 42.7499 46.6057C42.913 46.8683 43.0861 47.121 43.269 47.3637C43.452 47.6065 43.6418 47.838 43.8386 48.0585C44.0353 48.2775 44.2386 48.4842 44.4486 48.6784C44.6586 48.8727 44.8747 49.0541 45.0971 49.2227C45.317 49.3897 45.5453 49.5453 45.7811 49.689C46.0185 49.8338 46.2639 49.9653 46.516 50.0828C46.7605 50.1968 47.0115 50.2963 47.2677 50.3808C47.5187 50.4637 47.7745 50.5312 48.0336 50.5829C48.2902 50.6341 48.5497 50.6693 48.8106 50.6883L144.463 57.6851C144.742 57.7054 145.021 57.6774 145.29 57.6025C145.427 57.5644 145.56 57.5152 145.689 57.4553C145.823 57.3928 145.953 57.3203 146.076 57.2383C146.201 57.1553 146.321 57.0642 146.434 56.9656C146.553 56.8621 146.665 56.7517 146.771 56.6349C146.883 56.5116 146.988 56.3824 147.087 56.2481C147.188 56.1097 147.286 55.9623 147.38 55.8058C147.473 55.6493 147.562 55.4861 147.645 55.3161C147.729 55.1461 147.807 54.9694 147.88 54.7862C147.953 54.6033 148.02 54.414 148.082 54.2183C148.144 54.0227 148.201 53.8213 148.252 53.6141C148.305 53.3997 148.352 53.1815 148.391 52.9594C148.429 52.7373 148.463 52.5119 148.49 52.2832C148.517 52.0545 148.537 51.8228 148.55 51.5881C148.563 51.3533 148.57 51.1159 148.57 50.8759C148.569 50.6362 148.562 50.3976 148.55 50.1601C148.538 49.9226 148.518 49.6869 148.49 49.4529C148.463 49.219 148.43 48.987 148.391 48.7569C148.351 48.5269 148.305 48.2993 148.252 48.0741C148.201 47.8565 148.144 47.6438 148.082 47.436C148.021 47.231 147.953 47.029 147.88 46.8301C147.806 46.6312 147.728 46.4383 147.645 46.2515C147.562 46.0649 147.474 45.8839 147.38 45.7084C147.286 45.5329 147.188 45.3659 147.087 45.2075C146.985 45.049 146.88 44.8989 146.771 44.757C146.662 44.6151 146.55 44.4822 146.434 44.3585C146.321 44.2373 146.201 44.1222 146.076 44.0138C145.953 43.9076 145.824 43.8092 145.689 43.7191C145.561 43.6341 145.428 43.5581 145.29 43.4918C145.158 43.4285 145.021 43.3754 144.881 43.3331C144.744 43.2921 144.604 43.2624 144.462 43.2443" fill="#A8201A"/>
<path d="M144.462 70.7484L48.8098 68.4575C48.2909 68.4446 47.7725 68.4975 47.2669 68.6149C47.0119 68.6743 46.7608 68.7495 46.5151 68.8402C46.2639 68.9328 46.0185 69.0404 45.7803 69.1625C45.545 69.2831 45.3166 69.4167 45.0962 69.5626C44.8716 69.7114 44.6551 69.8721 44.4478 70.0441C44.235 70.2207 44.0313 70.408 43.8377 70.6054C43.6407 70.806 43.4509 71.0192 43.2682 71.2452C43.0855 71.4717 42.9125 71.7077 42.7491 71.9532C42.5857 72.1987 42.4323 72.4533 42.2891 72.717C42.1458 72.9806 42.0129 73.2531 41.8902 73.5345C41.7676 73.8158 41.6558 74.1051 41.5546 74.4024C41.4499 74.7102 41.3582 75.0229 41.2794 75.3406C41.2006 75.6583 41.1347 75.9801 41.0818 76.3061C41.03 76.6321 40.9903 76.9617 40.9628 77.2951C40.9352 77.6285 40.9215 77.9646 40.9215 78.3032C40.9226 78.6418 40.9363 78.9777 40.9628 79.3108C40.9892 79.6439 41.0289 79.9733 41.0818 80.299C41.1353 80.6231 41.2014 80.9437 41.2802 81.2608C41.359 81.5779 41.4507 81.8901 41.5554 82.1973C41.6566 82.4955 41.7684 82.7848 41.891 83.0653C42.0137 83.3458 42.1466 83.6174 42.2899 83.8803C42.4332 84.1432 42.5865 84.3968 42.7499 84.6412C42.913 84.8848 43.0861 85.119 43.269 85.3438C43.452 85.5687 43.6418 85.7807 43.8385 85.9799C44.0322 86.1761 44.2358 86.3622 44.4486 86.5374C44.656 86.7081 44.8725 86.8675 45.0971 87.0148C45.3175 87.1593 45.5459 87.2914 45.7811 87.4103C46.0194 87.531 46.2648 87.6372 46.5159 87.7282C46.7617 87.8172 47.0128 87.8908 47.2677 87.9485C47.5201 88.006 47.7759 88.0474 48.0336 88.0725C48.2918 88.0972 48.5513 88.1056 48.8106 88.0977L144.462 85.1876C144.603 85.1833 144.743 85.1671 144.881 85.1392C145.02 85.111 145.157 85.0713 145.29 85.0206C145.427 84.968 145.561 84.905 145.689 84.8322C145.824 84.7554 145.953 84.6695 146.076 84.5751C146.201 84.4789 146.321 84.3754 146.434 84.2651C146.553 84.1494 146.665 84.0274 146.771 83.8997C146.88 83.7697 146.985 83.6299 147.086 83.4802C147.188 83.3306 147.286 83.1732 147.38 83.0078C147.473 82.8414 147.562 82.6689 147.645 82.4904C147.729 82.3118 147.807 82.1272 147.88 81.9365C147.953 81.7428 148.02 81.5457 148.082 81.3451C148.144 81.1445 148.201 80.9379 148.252 80.7252C148.305 80.5075 148.352 80.2855 148.39 80.0593C148.429 79.8331 148.463 79.6043 148.49 79.3728C148.517 79.1405 148.537 78.9063 148.55 78.6702C148.563 78.4341 148.57 78.196 148.57 77.956C148.569 77.7182 148.562 77.4807 148.55 77.2435C148.538 77.0062 148.518 76.772 148.49 76.5409C148.463 76.3089 148.43 76.0803 148.39 75.8552C148.351 75.6301 148.305 75.4073 148.252 75.1869C148.2 74.9742 148.144 74.767 148.082 74.5653C148.02 74.3636 147.952 74.1677 147.88 73.9776C147.807 73.7874 147.729 73.6032 147.646 73.425C147.562 73.2467 147.474 73.0749 147.38 72.9096C147.286 72.744 147.188 72.5869 147.087 72.4384C146.986 72.2899 146.88 72.1506 146.772 72.0206C146.666 71.8935 146.553 71.7723 146.434 71.6573C146.321 71.5478 146.202 71.4451 146.076 71.3498C145.953 71.2561 145.824 71.171 145.689 71.0952C145.561 71.0233 145.427 70.9614 145.29 70.91C145.157 70.8601 145.02 70.8213 144.881 70.7939C144.743 70.7669 144.603 70.7517 144.462 70.7484" fill="#E4E4E4"/>
<path d="M144.462 96.5332L48.8098 103.529C48.5488 103.548 48.2894 103.583 48.0328 103.634C47.7736 103.686 47.5179 103.753 47.2669 103.836C47.0107 103.921 46.7597 104.02 46.5151 104.134C46.263 104.252 46.0177 104.383 45.7803 104.528C45.5445 104.672 45.3162 104.827 45.0963 104.994C44.8736 105.164 44.6575 105.346 44.4478 105.539C44.2381 105.732 44.0347 105.939 43.8377 106.159C43.6407 106.378 43.4509 106.61 43.2682 106.853C43.0855 107.098 42.9125 107.351 42.7491 107.612C42.5857 107.874 42.4324 108.143 42.2891 108.421C42.1458 108.698 42.0129 108.984 41.8903 109.277C41.7676 109.57 41.6558 109.87 41.5546 110.178C41.4499 110.495 41.3582 110.817 41.2794 111.143C41.2006 111.469 41.1347 111.797 41.0818 112.128C41.03 112.459 40.9904 112.792 40.9628 113.128C40.9352 113.464 40.9215 113.801 40.9215 114.14C40.9226 114.479 40.9363 114.813 40.9628 115.144C40.9893 115.475 41.0289 115.8 41.0818 116.121C41.1353 116.442 41.2014 116.757 41.2802 117.066C41.359 117.375 41.4508 117.678 41.5555 117.975C41.6566 118.263 41.7684 118.54 41.8911 118.809C42.0137 119.077 42.1466 119.336 42.2899 119.585C42.4332 119.834 42.5865 120.072 42.7499 120.301C42.9117 120.528 43.0849 120.746 43.269 120.955C43.4484 121.158 43.6385 121.351 43.8386 121.534C44.0323 121.711 44.236 121.877 44.4486 122.032C44.6564 122.182 44.873 122.32 45.0971 122.445C45.3182 122.569 45.5466 122.679 45.7811 122.776C46.0205 122.874 46.2659 122.957 46.516 123.024C46.7631 123.089 47.0142 123.138 47.2677 123.171C47.5217 123.203 47.7775 123.219 48.0336 123.219C48.2934 123.218 48.5529 123.202 48.8106 123.169L144.462 110.977C144.604 110.958 144.744 110.929 144.881 110.888C145.021 110.845 145.158 110.792 145.29 110.729C145.428 110.663 145.561 110.587 145.689 110.502C145.824 110.412 145.953 110.313 146.076 110.207C146.201 110.099 146.321 109.984 146.434 109.862C146.549 109.738 146.661 109.605 146.771 109.464C146.88 109.322 146.985 109.172 147.087 109.013C147.188 108.855 147.286 108.688 147.38 108.512C147.473 108.338 147.562 108.157 147.645 107.969C147.729 107.781 147.807 107.589 147.88 107.391C147.953 107.192 148.02 106.989 148.082 106.781C148.144 106.573 148.201 106.361 148.252 106.143C148.305 105.918 148.352 105.69 148.391 105.46C148.429 105.23 148.463 104.998 148.49 104.764C148.517 104.53 148.537 104.294 148.55 104.057C148.563 103.819 148.57 103.58 148.57 103.34C148.569 103.102 148.562 102.865 148.55 102.63C148.537 102.396 148.517 102.164 148.49 101.935C148.463 101.706 148.43 101.48 148.39 101.258C148.351 101.036 148.305 100.817 148.252 100.603C148.201 100.396 148.144 100.194 148.082 99.9988C148.021 99.8034 147.954 99.6141 147.88 99.4309C147.806 99.2476 147.728 99.071 147.646 98.901C147.562 98.7324 147.473 98.5696 147.379 98.4125C147.285 98.2554 147.187 98.108 147.086 97.9703C146.987 97.8359 146.882 97.7068 146.77 97.5834C146.665 97.4667 146.552 97.3563 146.433 97.2528C146.32 97.1541 146.2 97.063 146.075 96.98C145.952 96.898 145.822 96.8255 145.688 96.763C145.559 96.7031 145.426 96.6539 145.289 96.6159C145.02 96.5409 144.741 96.5129 144.462 96.5332" fill="#E4E4E4"/>
<path d="M92.3265 97.815C92.9324 98.8224 93.8872 99.5723 95.0095 99.9222C96.1318 100.272 97.3435 100.198 98.4146 99.7131C99.4857 99.2286 100.342 98.3676 100.82 97.2937C101.298 96.2197 101.365 95.0076 101.009 93.8874L119.547 55.8014L110.673 50.422L94.6632 90.877C94.602 90.9008 94.5418 90.9258 94.4824 90.9518C94.4231 90.9779 94.364 91.0051 94.3051 91.0335C94.2462 91.0618 94.1877 91.0917 94.1297 91.123C94.0717 91.1543 94.0141 91.1873 93.9569 91.2218C92.8666 91.8799 92.0823 92.9442 91.7764 94.1805C91.4706 95.4168 91.6683 96.724 92.3261 97.8146L92.3265 97.815Z" fill="#9E616A"/>
<path d="M116.008 70.4875L102.838 67.112C102.838 67.112 103.268 66.1399 103.967 64.5296C104.666 62.9192 105.642 60.6737 106.741 58.1242C107.839 55.5747 109.058 52.7261 110.248 49.9102C111.439 47.0944 112.596 44.3123 113.571 41.9009C114.546 39.4894 115.654 38.0452 116.767 37.2357C117.688 36.5355 118.849 36.227 119.996 36.3773C120.888 36.5101 121.74 36.8346 122.495 37.3284C122.852 37.5506 123.188 37.8055 123.498 38.0897L126.551 43.6427L116.008 70.4875Z" fill="#CCCCCC"/>
<path d="M10.6101 67.4713C10.2912 67.4949 9.97383 67.5363 9.65953 67.5953C9.3432 67.6546 9.03041 67.7313 8.72258 67.8251C8.41005 67.9206 8.10292 68.0329 7.80255 68.1616C7.49513 68.2932 7.19481 68.4408 6.90279 68.6038C6.61707 68.7644 6.33781 68.9391 6.06503 69.1279C5.79224 69.3166 5.52731 69.5194 5.27024 69.7363C5.01344 69.9525 4.76422 70.1832 4.52257 70.4281C4.28092 70.6731 4.04811 70.9314 3.8241 71.2031C3.60009 71.4747 3.38778 71.7562 3.18718 72.0474C2.98659 72.3387 2.7984 72.6387 2.62261 72.9476C2.44847 73.257 2.28562 73.5749 2.13408 73.9011C1.98253 74.2273 1.84477 74.5611 1.72078 74.9025C1.59155 75.2566 1.47845 75.6144 1.38145 75.9759C1.28446 76.3374 1.20359 76.7019 1.13884 77.0695C1.07382 77.437 1.02505 77.8071 0.992537 78.1796C0.960024 78.5521 0.943773 78.9262 0.943782 79.3017C0.943782 79.6773 0.960033 80.048 0.992537 80.4139C1.02504 80.7799 1.07381 81.1401 1.13884 81.4947C1.20359 81.8493 1.28447 82.1976 1.38145 82.5396C1.47844 82.8815 1.59114 83.2164 1.71954 83.5443C1.84463 83.8609 1.9824 84.1672 2.13284 84.4631C2.28155 84.756 2.44487 85.0413 2.62219 85.3178C2.79674 85.5891 2.98519 85.8512 3.18677 86.1031C3.38644 86.3534 3.59917 86.5931 3.82409 86.821C4.04529 87.0451 4.27846 87.257 4.52257 87.4558C4.76162 87.6505 5.01136 87.8317 5.27065 87.9985C5.78234 88.3278 6.33011 88.5974 6.9032 88.802C7.4907 89.0119 8.10122 89.1506 8.72174 89.2153C9.03298 89.2474 9.34584 89.2612 9.6587 89.2566C9.97659 89.2521 10.294 89.2296 10.6093 89.1892C10.9275 89.1487 11.2432 89.0906 11.5549 89.0152C11.8676 88.9396 12.176 88.847 12.4787 88.7379C12.7848 88.6275 13.0848 88.501 13.3776 88.3589C13.6759 88.2142 13.9667 88.0544 14.2489 87.8803C14.5236 87.7089 14.7911 87.5251 15.0515 87.3289C15.3119 87.1328 15.5641 86.9236 15.8083 86.7016C16.0524 86.4795 16.2881 86.2453 16.5154 85.9989C16.7427 85.7526 16.9612 85.4942 17.1709 85.2236C17.382 84.9533 17.5806 84.6748 17.7669 84.3883C17.9532 84.1017 18.1276 83.8076 18.2902 83.5059C18.4527 83.2042 18.6032 82.8954 18.7415 82.5797C18.8798 82.2639 19.0059 81.9415 19.1197 81.6125C19.2376 81.272 19.3408 80.9285 19.4292 80.5822C19.5177 80.2358 19.5915 79.887 19.6508 79.5357C19.7097 79.1841 19.7541 78.8307 19.7838 78.4756C19.8136 78.1204 19.8285 77.7637 19.8285 77.4055C19.8282 77.0473 19.8133 76.6935 19.7838 76.3442C19.7544 75.9948 19.71 75.6504 19.6508 75.3109C19.5918 74.972 19.518 74.638 19.4292 74.309C19.3405 73.9801 19.2373 73.6573 19.1197 73.3407C19.0053 73.0343 18.8793 72.7371 18.7415 72.4492C18.6018 72.1621 18.4507 71.8835 18.2881 71.6135C17.9663 71.0798 17.592 70.5796 17.1709 70.1202C16.9643 69.8943 16.746 69.6792 16.5171 69.4759C16.2916 69.2763 16.0556 69.0891 15.8099 68.915C15.5666 68.7426 15.314 68.5838 15.0532 68.4393C14.7925 68.2949 14.524 68.1652 14.2489 68.0508C13.6808 67.8142 13.0868 67.6456 12.4791 67.5486C12.1733 67.4999 11.8648 67.4691 11.5554 67.4564C11.2401 67.4437 10.9244 67.4489 10.6097 67.4722" fill="#E4E4E4"/>
<path d="M10.6101 106.322C10.2912 106.345 9.97383 106.387 9.65953 106.446C9.3432 106.505 9.03041 106.582 8.72258 106.676C8.41005 106.771 8.10292 106.883 7.80255 107.012C7.49513 107.144 7.19481 107.291 6.90279 107.454C6.61707 107.615 6.33781 107.79 6.06503 107.978C5.79224 108.167 5.52731 108.37 5.27024 108.587C5.01344 108.803 4.76422 109.034 4.52257 109.279C4.28092 109.524 4.04811 109.782 3.8241 110.054C3.60009 110.325 3.38778 110.607 3.18718 110.898C2.98659 111.189 2.7984 111.489 2.62261 111.798C2.44847 112.108 2.28562 112.425 2.13408 112.752C1.98253 113.078 1.84477 113.412 1.72078 113.753C1.59155 114.107 1.47845 114.465 1.38145 114.826C1.28446 115.188 1.20359 115.553 1.13884 115.92C1.07382 116.288 1.02505 116.658 0.992537 117.03C0.960024 117.403 0.943773 117.777 0.943782 118.152C0.943782 118.528 0.960033 118.899 0.992537 119.265C1.02504 119.63 1.07381 119.991 1.13884 120.345C1.20359 120.7 1.28447 121.048 1.38145 121.39C1.47844 121.732 1.59114 122.067 1.71954 122.395C1.84463 122.711 1.9824 123.018 2.13284 123.314C2.28155 123.607 2.44487 123.892 2.62219 124.168C2.79674 124.44 2.98519 124.702 3.18677 124.954C3.38644 125.204 3.59917 125.444 3.82409 125.672C4.04529 125.896 4.27846 126.108 4.52257 126.306C4.76162 126.501 5.01136 126.682 5.27065 126.849C5.78234 127.178 6.33011 127.448 6.9032 127.653C7.4907 127.862 8.10122 128.001 8.72174 128.066C9.03298 128.098 9.34584 128.112 9.6587 128.107C9.97659 128.103 10.294 128.08 10.6093 128.04C10.9275 127.999 11.2432 127.941 11.5549 127.866C11.8677 127.79 12.176 127.698 12.4787 127.589C12.7848 127.478 13.0848 127.352 13.3776 127.21C13.6759 127.065 13.9667 126.905 14.2489 126.731C14.5236 126.56 14.7911 126.376 15.0515 126.18C15.3119 125.983 15.5641 125.774 15.8083 125.552C16.0524 125.33 16.2881 125.096 16.5154 124.85C16.7427 124.603 16.9612 124.345 17.1709 124.074C17.382 123.804 17.5806 123.525 17.7669 123.239C17.9532 122.952 18.1276 122.658 18.2902 122.356C18.4527 122.055 18.6032 121.746 18.7415 121.43C18.8798 121.115 19.0059 120.792 19.1197 120.463C19.2376 120.123 19.3408 119.779 19.4292 119.433C19.5177 119.086 19.5915 118.738 19.6508 118.386C19.7097 118.035 19.7541 117.681 19.7838 117.326C19.8136 116.971 19.8285 116.614 19.8285 116.256C19.8282 115.898 19.8133 115.544 19.7838 115.195C19.7544 114.845 19.71 114.501 19.6508 114.161C19.5918 113.823 19.518 113.489 19.4292 113.16C19.3405 112.831 19.2373 112.508 19.1197 112.191C19.0053 111.885 18.8793 111.588 18.7415 111.3C18.6018 111.013 18.4507 110.734 18.2881 110.464C17.9663 109.93 17.592 109.43 17.1709 108.971C16.9643 108.745 16.746 108.53 16.5171 108.326C16.2916 108.127 16.0556 107.94 15.8099 107.766C15.5666 107.593 15.314 107.434 15.0532 107.29C14.7925 107.145 14.524 107.016 14.2489 106.901C13.6808 106.665 13.0868 106.496 12.4791 106.399C12.1733 106.35 11.8648 106.32 11.5554 106.307C11.2401 106.294 10.9244 106.3 10.6097 106.323" fill="#E4E4E4"/>
<path d="M10.6118 25.3837C10.2946 25.376 9.9772 25.3864 9.66118 25.4147C9.34645 25.443 9.03362 25.4894 8.72423 25.5536C8.41307 25.6186 8.10589 25.7014 7.8042 25.8016C7.49787 25.903 7.19749 26.0215 6.90444 26.1566C6.61761 26.2887 6.33796 26.4359 6.06668 26.5976C5.79271 26.7609 5.52742 26.9383 5.27189 27.1291C5.01223 27.323 4.76255 27.5299 4.52381 27.7491C4.28106 27.972 4.04783 28.2082 3.82409 28.4579C3.60008 28.7078 3.38777 28.9687 3.18718 29.2407C2.98658 29.5126 2.79839 29.7945 2.62261 30.0863C2.44764 30.3819 2.28438 30.6849 2.13284 30.9951C1.98129 31.3054 1.84353 31.6258 1.71954 31.9565C1.59114 32.2973 1.47844 32.6438 1.38145 32.9959C1.28446 33.3481 1.20359 33.7048 1.13884 34.066C1.07381 34.4283 1.02504 34.7937 0.992531 35.1621C0.960019 35.5305 0.943767 35.9024 0.943777 36.278C0.943777 36.653 0.960028 37.025 0.992531 37.3939C1.02503 37.7628 1.0738 38.1278 1.13884 38.4888C1.20359 38.8497 1.28446 39.2058 1.38145 39.5571C1.47844 39.9085 1.59114 40.2543 1.71954 40.5945C1.84463 40.9233 1.98239 41.2429 2.13284 41.5534C2.28438 41.8628 2.44804 42.163 2.62382 42.454C2.7996 42.745 2.9878 43.0256 3.1884 43.2959C3.38872 43.567 3.60102 43.8266 3.82531 44.0746C4.0496 44.3225 4.28243 44.5567 4.52379 44.7772C4.76128 44.9955 5.00972 45.2016 5.26815 45.3946C5.52372 45.5838 5.78901 45.7594 6.06293 45.9208C6.33427 46.0807 6.61392 46.2261 6.9007 46.3564C7.19382 46.4896 7.49422 46.6062 7.80047 46.7057C8.4031 46.9007 9.0262 47.0255 9.65744 47.0776C10.2895 47.13 10.9255 47.1108 11.5533 47.0202C11.8645 46.9752 12.1729 46.9125 12.477 46.8325C12.7819 46.7522 13.082 46.6548 13.3759 46.5407C13.6733 46.4254 13.9642 46.294 14.2472 46.1469C14.5232 46.0035 14.7916 45.8461 15.0515 45.6753C15.3129 45.5033 15.5654 45.3183 15.8082 45.121C16.0524 44.9227 16.2881 44.7113 16.5154 44.487C16.7427 44.2628 16.9612 44.0255 17.1709 43.7753C17.382 43.5251 17.5806 43.2659 17.7669 42.9975C17.9532 42.7291 18.1276 42.4519 18.2901 42.1659C18.4533 41.8799 18.6037 41.5858 18.7415 41.2835C18.8792 40.9813 19.0053 40.6717 19.1196 40.3548C19.2376 40.0258 19.3408 39.6924 19.4292 39.3546C19.5177 39.0168 19.5915 38.6751 19.6507 38.3296C19.7097 37.9827 19.7541 37.6331 19.7838 37.2807C19.8136 36.9283 19.8285 36.5729 19.8285 36.2147C19.8282 35.8568 19.8133 35.5017 19.7838 35.1493C19.7543 34.7968 19.71 34.4482 19.6507 34.1032C19.5918 33.7579 19.5179 33.4165 19.4292 33.079C19.3405 32.7415 19.2373 32.4086 19.1196 32.0805C19.0053 31.7633 18.8792 31.454 18.7415 31.1526C18.6037 30.8512 18.4526 30.5576 18.2881 30.2718C18.1255 29.9886 17.9511 29.7131 17.7648 29.4452C17.5785 29.1774 17.3806 28.9195 17.1709 28.6715C16.9626 28.4238 16.7447 28.1884 16.5171 27.9652C16.2895 27.742 16.0537 27.5322 15.8099 27.3357C15.5672 27.1396 15.3148 26.9559 15.0535 26.7852C14.7936 26.6159 14.5252 26.4602 14.2493 26.3186C13.9662 26.1732 13.6753 26.0435 13.378 25.9301C13.084 25.8179 12.7839 25.7224 12.4791 25.6441C12.1749 25.566 11.8665 25.5052 11.5553 25.4622C11.2418 25.419 10.9261 25.3936 10.6097 25.3862L10.6118 25.3837ZM10.6097 24.3521C11.9981 24.3901 13.3598 24.7425 14.5923 25.3829C15.8171 26.0233 16.9027 26.9003 17.7863 27.9631C18.7099 29.0707 19.4293 30.3338 19.9107 31.6932C20.9417 34.6193 20.9417 37.8098 19.9107 40.7359C19.4288 42.0993 18.7096 43.3667 17.7863 44.4796C16.9026 45.5475 15.8171 46.4307 14.5919 47.0789C13.361 47.7269 11.9995 48.0881 10.6093 48.1357C9.21049 48.1816 7.81995 47.9044 6.54567 47.3256C5.25926 46.7364 4.10841 45.8878 3.16526 44.833C2.16372 43.716 1.37985 42.4216 0.854063 41.0165C-0.284708 37.9577 -0.284708 34.5913 0.854063 31.5324C1.38037 30.1231 2.16408 28.8239 3.16526 27.7011C4.10812 26.6404 5.25867 25.7846 6.54567 25.1866C7.81896 24.5997 9.21021 24.3136 10.6118 24.3504L10.6097 24.3521Z" fill="#A8201A"/>
<path d="M10.611 39.167L7.35536 32.3847L8.12824 31.8813L10.8098 37.453L22.069 24.219L22.7505 24.9452L10.611 39.167Z" fill="#A8201A"/>
<path d="M129.095 173.068L121.036 173.037L123.635 194.096L129.095 194.123V173.068Z" fill="#9E616A"/>
<path d="M130.488 199.422L112.89 199.329V199.107C112.89 198.655 112.934 198.204 113.022 197.761C113.195 196.887 113.539 196.056 114.036 195.317C114.541 194.567 115.187 193.924 115.939 193.423C116.682 192.929 117.514 192.588 118.389 192.419C118.833 192.334 119.284 192.292 119.735 192.295V192.295L130.488 192.348V199.422Z" fill="#2F2E41"/>
<path d="M103.29 172.968L95.2536 172.937L97.8442 193.967L103.29 193.995V172.968Z" fill="#9E616A"/>
<path d="M104.679 199.285L87.1272 199.193V198.971C87.1271 198.52 87.1711 198.07 87.2587 197.627C87.4312 196.755 87.7751 195.925 88.2704 195.186C88.7733 194.437 89.4184 193.794 90.1691 193.294C90.9092 192.802 91.7398 192.461 92.6126 192.293C93.055 192.207 93.5048 192.166 93.9554 192.169V192.169L104.679 192.221V199.285Z" fill="#2F2E41"/>
<path d="M102.949 86.8941L89.4347 137.326L94.3811 185.669L105.334 185.971L102.949 142.32L116.612 120.537L119.576 186.269L129.511 185.566L135.037 129.05C136.915 124.637 138.291 120.028 139.142 115.308C139.81 111.603 140.135 107.845 140.112 104.081C140.101 101.546 139.906 99.0162 139.53 96.5101C139.395 95.5761 139.213 94.6497 138.984 93.7343L134.954 89.6496L102.949 86.8941Z" fill="#2F2E41"/>
<path d="M120.853 95.3289C118.581 95.3289 116.448 95.256 114.515 95.112C112.539 94.9765 110.575 94.7179 108.632 94.3376C106.977 94.0286 105.366 93.5214 103.833 92.8269C102.599 92.2939 101.526 91.4471 100.721 90.3707L100.629 90.2367L104.323 66.1979L108.306 39.169C108.568 37.3803 109.479 35.7505 110.865 34.5898C112.251 33.4291 114.015 32.8186 115.822 32.8744L128.297 33.2566C129.232 33.2853 130.152 33.5015 131.003 33.8924C131.853 34.2834 132.616 34.841 133.247 35.5324C133.878 36.2238 134.364 37.0348 134.675 37.9173C134.987 38.7998 135.118 39.7359 135.061 40.6701L133.424 67.5506L139.464 94.0654L139.036 94.1251C138.864 94.1479 138.201 94.2354 137.163 94.3522C135.806 94.5048 134.42 94.6423 133.044 94.7609C131.097 94.9288 129.192 95.0607 127.382 95.1533C125.086 95.2703 122.885 95.3269 120.853 95.3289Z" fill="#CCCCCC"/>
<path d="M113.931 28.0979C113.928 28.0979 113.924 28.0979 113.921 28.0979C113.659 28.0977 113.4 28.046 113.158 27.9457C112.917 27.8454 112.697 27.6985 112.512 27.5133C112.327 27.3281 112.18 27.1083 112.08 26.8664C111.98 26.6246 111.929 26.3654 111.929 26.1037V14.9817C111.927 12.9891 112.326 11.0164 113.102 9.18095C114.621 5.59919 117.463 2.74176 121.037 1.20418C123.297 0.234703 125.763 -0.159078 128.213 0.0580998C130.663 0.275278 133.02 1.09663 135.075 2.44862C137.129 3.80061 138.816 5.64102 139.985 7.80504C141.154 9.96907 141.768 12.3892 141.771 14.8486V25.9876C141.772 26.2556 141.718 26.521 141.614 26.7679C141.409 27.2494 141.026 27.6333 140.545 27.8392C140.298 27.9445 140.032 27.9992 139.764 27.9999L113.929 28.0979H113.931Z" fill="#2F2E41"/>
<path d="M133.588 11.1673C134.628 13.068 135.082 15.2345 134.892 17.3931C134.703 19.5517 133.877 21.6056 132.521 23.2954C131.164 24.9852 129.337 26.2351 127.271 26.8873C125.204 27.5395 122.991 27.5647 120.91 26.9597C119.532 26.5637 118.247 25.8983 117.128 25.002C116.009 24.1057 115.079 22.9963 114.392 21.738C113.354 19.8381 112.902 17.6734 113.092 15.5168C113.283 13.3602 114.107 11.3082 115.462 9.6196C116.817 7.931 118.642 6.68137 120.706 6.02828C122.77 5.37519 124.981 5.34787 127.061 5.94978C128.44 6.34425 129.727 7.00862 130.848 7.90434C131.968 8.80005 132.899 9.9093 133.588 11.1677V11.1673Z" fill="#9E616A"/>
<path d="M108.402 15.8868C108.4 14.3109 108.716 12.7508 109.329 11.2991C110.53 8.46685 112.778 6.20749 115.604 4.99211C117.054 4.37083 118.614 4.04755 120.192 4.04151L122.418 4.03035C122.443 4.03021 122.468 4.03014 122.493 4.03016C124.034 4.03111 125.561 4.33565 126.984 4.92641C128.408 5.51717 129.702 6.38257 130.791 7.4732C131.88 8.56383 132.744 9.85833 133.333 11.2828C133.922 12.7073 134.225 14.2338 134.224 15.7752V15.998L129.514 16.017L127.909 11.531L127.588 16.0257L125.155 16.0364L124.346 13.7732L124.183 16.0393L108.404 16.11L108.402 15.8868Z" fill="#2F2E41"/>
<path d="M89.4433 39.284C88.7187 39.4613 88.0411 39.7934 87.457 40.2575C87.0006 40.6186 86.6103 41.0562 86.3035 41.5508C85.6986 42.5296 85.432 43.6802 85.5449 44.8253C85.6018 45.4038 85.7588 45.9681 86.0086 46.4929C86.3167 47.147 86.7599 47.7284 87.3092 48.1986C87.8584 48.6688 88.5012 49.0171 89.195 49.2206C89.8888 49.424 90.6178 49.478 91.334 49.379C92.0502 49.28 92.7373 49.0301 93.3498 48.646C93.395 48.6168 93.4397 48.5873 93.4839 48.5573C93.5282 48.5273 93.5717 48.4966 93.6144 48.4654C93.6573 48.4341 93.6995 48.4023 93.741 48.37C93.7825 48.3378 93.8237 48.305 93.8645 48.2718L119.85 57.5202C120.65 57.8046 121.52 57.8216 122.33 57.5686C123.14 57.3156 123.846 56.8063 124.341 56.1174L130.502 47.5877L123.054 42.5721L119.145 47.0123L95.364 42.2816C95.338 42.22 95.3112 42.1587 95.2834 42.0977C95.2556 42.0367 95.2266 41.976 95.1964 41.9155C95.1656 41.8552 95.1339 41.7952 95.1014 41.7355C95.0688 41.6759 95.0343 41.6167 94.998 41.5579C94.4306 40.6412 93.5876 39.9275 92.5899 39.5191C91.5921 39.1106 90.4907 39.0283 89.4433 39.284Z" fill="#9E616A"/>
<path d="M119.564 44.2121C120.342 43.242 121.429 41.9825 122.533 40.7332C123.637 39.4839 124.758 38.2457 125.603 37.3195C126.448 36.3932 127.017 35.7793 127.017 35.7793C127.797 34.5996 128.962 33.7264 130.313 33.3079C131.664 32.8894 133.118 32.9515 134.428 33.4837C135.739 34.0158 136.825 34.9852 137.501 36.2271C138.178 37.469 138.404 38.9069 138.141 40.2966C137.991 41.0966 137.68 41.8579 137.228 42.5347C137.228 42.5347 136.38 43.6441 135.1 45.2999C133.821 46.9558 132.108 49.16 130.381 51.3514C128.654 53.5428 126.91 55.7228 125.566 57.332C124.221 58.9413 123.275 59.9809 123.142 59.8918L118.452 45.9501C118.318 45.8611 118.787 45.1822 119.564 44.2121Z" fill="#CCCCCC"/>
<path d="M122.348 27.7474C122.274 28.107 122.303 28.48 122.431 28.8241C122.495 29.0002 122.583 29.1664 122.694 29.318C122.788 29.4471 122.897 29.5646 123.019 29.668C123.381 29.9734 123.839 30.14 124.312 30.138C124.342 30.1377 124.371 30.1369 124.401 30.1355C124.43 30.1341 124.46 30.1321 124.489 30.1293C124.519 30.1268 124.548 30.1235 124.578 30.1194C124.607 30.1152 124.637 30.1106 124.667 30.1053L126.338 29.8015L128.64 24.8832V29.3882L136.239 28.0202V8.90282L123.5 8.96398L123.815 9.32976C124.86 10.5571 125.547 12.049 125.799 13.6414C126.046 15.2542 126.015 16.8974 125.707 18.4997C125.408 20.1211 124.954 21.7099 124.351 23.2445C123.824 24.6039 123.219 25.9318 122.539 27.2217C122.451 27.3872 122.387 27.5641 122.348 27.7474V27.7474Z" fill="#2F2E41"/>
<path d="M34.109 200H191.578C191.688 200 191.793 199.956 191.87 199.879C191.948 199.801 191.991 199.696 191.991 199.587C191.991 199.477 191.948 199.372 191.87 199.294C191.793 199.217 191.688 199.173 191.578 199.173H34.109C33.9994 199.173 33.8943 199.217 33.8168 199.294C33.7393 199.372 33.6957 199.477 33.6957 199.587C33.6957 199.696 33.7393 199.801 33.8168 199.879C33.8943 199.956 33.9994 200 34.109 200V200Z" fill="#CACACA"/>
</g>
<defs>
<clipPath id="clip0_30_107">
<rect width="191.607" height="199.6" fill="white" transform="scale(1.002)"/>
</clipPath>
</defs>
</svg>
